M48
;DRILL file {KiCad 4.0.2-stable} date Monday, September 10, 2018 'AMt' 08:27:52 AM
;FORMAT={2:4/ absolute / inch / suppress leading zeros}
FMAT,2
INCH,TZ
T1C0.016
T2C0.035
T3C0.051
%
G90
G05
M72
T1
X42890Y-31600
X42890Y-31920
X42890Y-32900
X42890Y-33480
X42890Y-34080
X44470Y-31240
X44470Y-31520
X46000Y-34350
X52750Y-27380
X52750Y-27750
X52757Y-28091
T2
X46000Y-32860
X46000Y-35680
X46000Y-38500
X47000Y-32860
X47000Y-35680
X47000Y-38500
X48000Y-32860
X48000Y-35680
X48000Y-38500
X49000Y-32860
X49000Y-35680
X49000Y-38500
X51250Y-32860
X51250Y-35680
X51250Y-38500
X52250Y-32860
X52250Y-35680
X52250Y-38500
X54750Y-25500
X54750Y-26500
X54750Y-27500
T3
X41351Y-29909
X41351Y-36091
X43300Y-30146
X43300Y-35854
T0
M30
