G04 #@! TF.FileFunction,Legend,Top*
%FSLAX46Y46*%
G04 Gerber Fmt 4.6, Leading zero omitted, Abs format (unit mm)*
G04 Created by KiCad (PCBNEW 4.0.2-stable) date Monday, September 10, 2018 'AMt' 08:27:29 AM*
%MOMM*%
G01*
G04 APERTURE LIST*
%ADD10C,0.050000*%
%ADD11C,0.200000*%
%ADD12C,0.203200*%
%ADD13C,0.150000*%
G04 APERTURE END LIST*
D10*
D11*
X136271000Y-71958200D02*
X136271000Y-62484000D01*
X110871000Y-72009000D02*
X136321800Y-72085200D01*
X110871000Y-72009000D02*
X110871000Y-62509400D01*
X136271000Y-62484000D02*
X110871000Y-62484000D01*
D12*
X111012000Y-76320000D02*
X111012000Y-91320000D01*
X101512000Y-76320000D02*
X111012000Y-76320000D01*
X101512000Y-91320000D02*
X111012000Y-91320000D01*
X101512000Y-91320000D02*
X101512000Y-76320000D01*
D13*
X140335000Y-68580000D02*
X140335000Y-63500000D01*
X140335000Y-63500000D02*
X137795000Y-63500000D01*
X137795000Y-63500000D02*
X137795000Y-68580000D01*
X137515000Y-71400000D02*
X137515000Y-69850000D01*
X137795000Y-68580000D02*
X140335000Y-68580000D01*
X140615000Y-69850000D02*
X140615000Y-71400000D01*
X140615000Y-71400000D02*
X137515000Y-71400000D01*
X125830000Y-86484400D02*
X125830000Y-80484400D01*
X125830000Y-80484400D02*
X115470000Y-80484400D01*
X115470000Y-80484400D02*
X115470000Y-86484400D01*
X115470000Y-86484400D02*
X125830000Y-86484400D01*
X124460000Y-80484400D02*
X124460000Y-81484400D01*
X124460000Y-81484400D02*
X116840000Y-81484400D01*
X116840000Y-81484400D02*
X116840000Y-80484400D01*
X124460000Y-81484400D02*
X124210000Y-81914400D01*
X124210000Y-81914400D02*
X117090000Y-81914400D01*
X117090000Y-81914400D02*
X116840000Y-81484400D01*
X124210000Y-80484400D02*
X124210000Y-81484400D01*
X117090000Y-80484400D02*
X117090000Y-81484400D01*
X125260000Y-86484400D02*
X125260000Y-85864400D01*
X125260000Y-85864400D02*
X123660000Y-85864400D01*
X123660000Y-85864400D02*
X123660000Y-86484400D01*
X122720000Y-86484400D02*
X122720000Y-85864400D01*
X122720000Y-85864400D02*
X121120000Y-85864400D01*
X121120000Y-85864400D02*
X121120000Y-86484400D01*
X120180000Y-86484400D02*
X120180000Y-85864400D01*
X120180000Y-85864400D02*
X118580000Y-85864400D01*
X118580000Y-85864400D02*
X118580000Y-86484400D01*
X117640000Y-86484400D02*
X117640000Y-85864400D01*
X117640000Y-85864400D02*
X116040000Y-85864400D01*
X116040000Y-85864400D02*
X116040000Y-86484400D01*
X125830000Y-93647200D02*
X125830000Y-87647200D01*
X125830000Y-87647200D02*
X115470000Y-87647200D01*
X115470000Y-87647200D02*
X115470000Y-93647200D01*
X115470000Y-93647200D02*
X125830000Y-93647200D01*
X124460000Y-87647200D02*
X124460000Y-88647200D01*
X124460000Y-88647200D02*
X116840000Y-88647200D01*
X116840000Y-88647200D02*
X116840000Y-87647200D01*
X124460000Y-88647200D02*
X124210000Y-89077200D01*
X124210000Y-89077200D02*
X117090000Y-89077200D01*
X117090000Y-89077200D02*
X116840000Y-88647200D01*
X124210000Y-87647200D02*
X124210000Y-88647200D01*
X117090000Y-87647200D02*
X117090000Y-88647200D01*
X125260000Y-93647200D02*
X125260000Y-93027200D01*
X125260000Y-93027200D02*
X123660000Y-93027200D01*
X123660000Y-93027200D02*
X123660000Y-93647200D01*
X122720000Y-93647200D02*
X122720000Y-93027200D01*
X122720000Y-93027200D02*
X121120000Y-93027200D01*
X121120000Y-93027200D02*
X121120000Y-93647200D01*
X120180000Y-93647200D02*
X120180000Y-93027200D01*
X120180000Y-93027200D02*
X118580000Y-93027200D01*
X118580000Y-93027200D02*
X118580000Y-93647200D01*
X117640000Y-93647200D02*
X117640000Y-93027200D01*
X117640000Y-93027200D02*
X116040000Y-93027200D01*
X116040000Y-93027200D02*
X116040000Y-93647200D01*
X125830000Y-100810000D02*
X125830000Y-94810000D01*
X125830000Y-94810000D02*
X115470000Y-94810000D01*
X115470000Y-94810000D02*
X115470000Y-100810000D01*
X115470000Y-100810000D02*
X125830000Y-100810000D01*
X124460000Y-94810000D02*
X124460000Y-95810000D01*
X124460000Y-95810000D02*
X116840000Y-95810000D01*
X116840000Y-95810000D02*
X116840000Y-94810000D01*
X124460000Y-95810000D02*
X124210000Y-96240000D01*
X124210000Y-96240000D02*
X117090000Y-96240000D01*
X117090000Y-96240000D02*
X116840000Y-95810000D01*
X124210000Y-94810000D02*
X124210000Y-95810000D01*
X117090000Y-94810000D02*
X117090000Y-95810000D01*
X125260000Y-100810000D02*
X125260000Y-100190000D01*
X125260000Y-100190000D02*
X123660000Y-100190000D01*
X123660000Y-100190000D02*
X123660000Y-100810000D01*
X122720000Y-100810000D02*
X122720000Y-100190000D01*
X122720000Y-100190000D02*
X121120000Y-100190000D01*
X121120000Y-100190000D02*
X121120000Y-100810000D01*
X120180000Y-100810000D02*
X120180000Y-100190000D01*
X120180000Y-100190000D02*
X118580000Y-100190000D01*
X118580000Y-100190000D02*
X118580000Y-100810000D01*
X117640000Y-100810000D02*
X117640000Y-100190000D01*
X117640000Y-100190000D02*
X116040000Y-100190000D01*
X116040000Y-100190000D02*
X116040000Y-100810000D01*
X134085000Y-86484400D02*
X134085000Y-80484400D01*
X134085000Y-80484400D02*
X128805000Y-80484400D01*
X128805000Y-80484400D02*
X128805000Y-86484400D01*
X128805000Y-86484400D02*
X134085000Y-86484400D01*
X132715000Y-80484400D02*
X132715000Y-81484400D01*
X132715000Y-81484400D02*
X130175000Y-81484400D01*
X130175000Y-81484400D02*
X130175000Y-80484400D01*
X132715000Y-81484400D02*
X132465000Y-81914400D01*
X132465000Y-81914400D02*
X130425000Y-81914400D01*
X130425000Y-81914400D02*
X130175000Y-81484400D01*
X132465000Y-80484400D02*
X132465000Y-81484400D01*
X130425000Y-80484400D02*
X130425000Y-81484400D01*
X133515000Y-86484400D02*
X133515000Y-85864400D01*
X133515000Y-85864400D02*
X131915000Y-85864400D01*
X131915000Y-85864400D02*
X131915000Y-86484400D01*
X130975000Y-86484400D02*
X130975000Y-85864400D01*
X130975000Y-85864400D02*
X129375000Y-85864400D01*
X129375000Y-85864400D02*
X129375000Y-86484400D01*
X134085000Y-93647200D02*
X134085000Y-87647200D01*
X134085000Y-87647200D02*
X128805000Y-87647200D01*
X128805000Y-87647200D02*
X128805000Y-93647200D01*
X128805000Y-93647200D02*
X134085000Y-93647200D01*
X132715000Y-87647200D02*
X132715000Y-88647200D01*
X132715000Y-88647200D02*
X130175000Y-88647200D01*
X130175000Y-88647200D02*
X130175000Y-87647200D01*
X132715000Y-88647200D02*
X132465000Y-89077200D01*
X132465000Y-89077200D02*
X130425000Y-89077200D01*
X130425000Y-89077200D02*
X130175000Y-88647200D01*
X132465000Y-87647200D02*
X132465000Y-88647200D01*
X130425000Y-87647200D02*
X130425000Y-88647200D01*
X133515000Y-93647200D02*
X133515000Y-93027200D01*
X133515000Y-93027200D02*
X131915000Y-93027200D01*
X131915000Y-93027200D02*
X131915000Y-93647200D01*
X130975000Y-93647200D02*
X130975000Y-93027200D01*
X130975000Y-93027200D02*
X129375000Y-93027200D01*
X129375000Y-93027200D02*
X129375000Y-93647200D01*
X134085000Y-100810000D02*
X134085000Y-94810000D01*
X134085000Y-94810000D02*
X128805000Y-94810000D01*
X128805000Y-94810000D02*
X128805000Y-100810000D01*
X128805000Y-100810000D02*
X134085000Y-100810000D01*
X132715000Y-94810000D02*
X132715000Y-95810000D01*
X132715000Y-95810000D02*
X130175000Y-95810000D01*
X130175000Y-95810000D02*
X130175000Y-94810000D01*
X132715000Y-95810000D02*
X132465000Y-96240000D01*
X132465000Y-96240000D02*
X130425000Y-96240000D01*
X130425000Y-96240000D02*
X130175000Y-95810000D01*
X132465000Y-94810000D02*
X132465000Y-95810000D01*
X130425000Y-94810000D02*
X130425000Y-95810000D01*
X133515000Y-100810000D02*
X133515000Y-100190000D01*
X133515000Y-100190000D02*
X131915000Y-100190000D01*
X131915000Y-100190000D02*
X131915000Y-100810000D01*
X130975000Y-100810000D02*
X130975000Y-100190000D01*
X130975000Y-100190000D02*
X129375000Y-100190000D01*
X129375000Y-100190000D02*
X129375000Y-100810000D01*
X110660571Y-87427143D02*
X109160571Y-87427143D01*
X109874857Y-87427143D02*
X109874857Y-86570000D01*
X110660571Y-86570000D02*
X109160571Y-86570000D01*
X110660571Y-85855714D02*
X109160571Y-85855714D01*
X109160571Y-85498571D01*
X109232000Y-85284286D01*
X109374857Y-85141428D01*
X109517714Y-85070000D01*
X109803429Y-84998571D01*
X110017714Y-84998571D01*
X110303429Y-85070000D01*
X110446286Y-85141428D01*
X110589143Y-85284286D01*
X110660571Y-85498571D01*
X110660571Y-85855714D01*
X110660571Y-84355714D02*
X109160571Y-84355714D01*
X110232000Y-83855714D01*
X109160571Y-83355714D01*
X110660571Y-83355714D01*
X110660571Y-82641428D02*
X109160571Y-82641428D01*
X110803429Y-82284285D02*
X110803429Y-81141428D01*
X110232000Y-80855714D02*
X110232000Y-80141428D01*
X110660571Y-80998571D02*
X109160571Y-80498571D01*
X110660571Y-79998571D01*
M02*
