G04 #@! TF.FileFunction,Soldermask,Bot*
%FSLAX46Y46*%
G04 Gerber Fmt 4.6, Leading zero omitted, Abs format (unit mm)*
G04 Created by KiCad (PCBNEW 4.0.2-stable) date Monday, September 10, 2018 'AMt' 08:27:29 AM*
%MOMM*%
G01*
G04 APERTURE LIST*
%ADD10C,0.050000*%
G04 APERTURE END LIST*
D10*
G36*
X127378861Y-99619189D02*
X127491089Y-99642226D01*
X127529844Y-99658517D01*
X127596704Y-99686622D01*
X127691684Y-99750687D01*
X127772415Y-99831984D01*
X127804113Y-99879695D01*
X127835814Y-99927408D01*
X127873797Y-100019563D01*
X127879473Y-100033333D01*
X127893157Y-100102444D01*
X127901725Y-100145716D01*
X127899898Y-100276574D01*
X127874516Y-100388295D01*
X127845805Y-100452780D01*
X127827918Y-100492956D01*
X127827917Y-100492957D01*
X127761877Y-100586576D01*
X127678910Y-100665584D01*
X127582177Y-100726972D01*
X127475363Y-100768402D01*
X127475360Y-100768403D01*
X127393268Y-100782878D01*
X127362536Y-100788297D01*
X127362535Y-100788297D01*
X127324355Y-100787497D01*
X127247994Y-100785898D01*
X127136099Y-100761296D01*
X127031113Y-100715429D01*
X126937036Y-100650044D01*
X126857451Y-100567631D01*
X126809327Y-100492957D01*
X126795388Y-100471328D01*
X126753213Y-100364806D01*
X126732532Y-100252124D01*
X126732532Y-100252121D01*
X126734131Y-100137565D01*
X126757951Y-100025501D01*
X126803084Y-99920198D01*
X126867811Y-99825666D01*
X126908739Y-99785587D01*
X126949668Y-99745506D01*
X127045533Y-99682775D01*
X127151758Y-99639857D01*
X127264296Y-99618389D01*
X127378861Y-99619189D01*
X127378861Y-99619189D01*
G37*
G36*
X105586057Y-96114916D02*
X105908066Y-96181015D01*
X106211099Y-96308398D01*
X106483619Y-96492216D01*
X106715250Y-96725469D01*
X106897157Y-96999262D01*
X107022424Y-97303183D01*
X107086255Y-97625551D01*
X107086255Y-97625559D01*
X107086271Y-97625640D01*
X107081029Y-98001100D01*
X107081010Y-98001183D01*
X107081010Y-98001191D01*
X107008203Y-98321649D01*
X106874500Y-98621951D01*
X106685013Y-98890566D01*
X106446966Y-99117255D01*
X106169421Y-99293390D01*
X105862941Y-99412266D01*
X105539218Y-99469347D01*
X105210573Y-99462463D01*
X104889518Y-99391874D01*
X104588294Y-99260273D01*
X104318364Y-99072666D01*
X104090016Y-98836206D01*
X103911945Y-98559894D01*
X103790936Y-98254258D01*
X103731596Y-97930942D01*
X103736186Y-97602248D01*
X103804530Y-97280717D01*
X103934026Y-96978577D01*
X104119741Y-96707347D01*
X104354605Y-96477351D01*
X104629665Y-96297358D01*
X104934449Y-96174217D01*
X105257345Y-96112621D01*
X105586057Y-96114916D01*
X105586057Y-96114916D01*
G37*
G36*
X138606057Y-96114916D02*
X138928066Y-96181015D01*
X139231099Y-96308398D01*
X139503619Y-96492216D01*
X139735250Y-96725469D01*
X139917157Y-96999262D01*
X140042424Y-97303183D01*
X140106255Y-97625551D01*
X140106255Y-97625559D01*
X140106271Y-97625640D01*
X140101029Y-98001100D01*
X140101010Y-98001183D01*
X140101010Y-98001191D01*
X140028203Y-98321649D01*
X139894500Y-98621951D01*
X139705013Y-98890566D01*
X139466966Y-99117255D01*
X139189421Y-99293390D01*
X138882941Y-99412266D01*
X138559218Y-99469347D01*
X138230573Y-99462463D01*
X137909518Y-99391874D01*
X137608294Y-99260273D01*
X137338364Y-99072666D01*
X137110016Y-98836206D01*
X136931945Y-98559894D01*
X136810936Y-98254258D01*
X136751596Y-97930942D01*
X136756186Y-97602248D01*
X136824530Y-97280717D01*
X136954026Y-96978577D01*
X137139741Y-96707347D01*
X137374605Y-96477351D01*
X137649665Y-96297358D01*
X137954449Y-96174217D01*
X138277345Y-96112621D01*
X138606057Y-96114916D01*
X138606057Y-96114916D01*
G37*
G36*
X116847184Y-96988823D02*
X116854549Y-96988874D01*
X116854553Y-96988874D01*
X116855063Y-96988878D01*
X117010456Y-97006308D01*
X117159503Y-97053589D01*
X117296529Y-97128919D01*
X117416313Y-97229430D01*
X117514293Y-97351292D01*
X117586737Y-97489865D01*
X117630886Y-97639870D01*
X117645057Y-97795593D01*
X117628713Y-97951104D01*
X117582474Y-98100477D01*
X117508102Y-98238025D01*
X117408430Y-98358508D01*
X117287254Y-98457336D01*
X117149191Y-98530746D01*
X116999498Y-98575941D01*
X116843877Y-98591200D01*
X116836123Y-98591200D01*
X116832816Y-98591177D01*
X116825451Y-98591126D01*
X116825447Y-98591126D01*
X116824937Y-98591122D01*
X116669544Y-98573692D01*
X116520497Y-98526411D01*
X116383471Y-98451081D01*
X116263687Y-98350570D01*
X116165707Y-98228708D01*
X116093263Y-98090135D01*
X116049114Y-97940130D01*
X116048278Y-97930939D01*
X116041788Y-97859627D01*
X116034943Y-97784407D01*
X116039663Y-97739501D01*
X116049972Y-97641408D01*
X116051287Y-97628896D01*
X116097526Y-97479523D01*
X116171898Y-97341975D01*
X116271570Y-97221492D01*
X116392746Y-97122664D01*
X116530809Y-97049254D01*
X116680502Y-97004059D01*
X116836123Y-96988800D01*
X116843877Y-96988800D01*
X116847184Y-96988823D01*
X116847184Y-96988823D01*
G37*
G36*
X119387184Y-96988823D02*
X119394549Y-96988874D01*
X119394553Y-96988874D01*
X119395063Y-96988878D01*
X119550456Y-97006308D01*
X119699503Y-97053589D01*
X119836529Y-97128919D01*
X119956313Y-97229430D01*
X120054293Y-97351292D01*
X120126737Y-97489865D01*
X120170886Y-97639870D01*
X120185057Y-97795593D01*
X120168713Y-97951104D01*
X120122474Y-98100477D01*
X120048102Y-98238025D01*
X119948430Y-98358508D01*
X119827254Y-98457336D01*
X119689191Y-98530746D01*
X119539498Y-98575941D01*
X119383877Y-98591200D01*
X119376123Y-98591200D01*
X119372816Y-98591177D01*
X119365451Y-98591126D01*
X119365447Y-98591126D01*
X119364937Y-98591122D01*
X119209544Y-98573692D01*
X119060497Y-98526411D01*
X118923471Y-98451081D01*
X118803687Y-98350570D01*
X118705707Y-98228708D01*
X118633263Y-98090135D01*
X118589114Y-97940130D01*
X118588278Y-97930939D01*
X118581788Y-97859627D01*
X118574943Y-97784407D01*
X118579663Y-97739501D01*
X118589972Y-97641408D01*
X118591287Y-97628896D01*
X118637526Y-97479523D01*
X118711898Y-97341975D01*
X118811570Y-97221492D01*
X118932746Y-97122664D01*
X119070809Y-97049254D01*
X119220502Y-97004059D01*
X119376123Y-96988800D01*
X119383877Y-96988800D01*
X119387184Y-96988823D01*
X119387184Y-96988823D01*
G37*
G36*
X121927184Y-96988823D02*
X121934549Y-96988874D01*
X121934553Y-96988874D01*
X121935063Y-96988878D01*
X122090456Y-97006308D01*
X122239503Y-97053589D01*
X122376529Y-97128919D01*
X122496313Y-97229430D01*
X122594293Y-97351292D01*
X122666737Y-97489865D01*
X122710886Y-97639870D01*
X122725057Y-97795593D01*
X122708713Y-97951104D01*
X122662474Y-98100477D01*
X122588102Y-98238025D01*
X122488430Y-98358508D01*
X122367254Y-98457336D01*
X122229191Y-98530746D01*
X122079498Y-98575941D01*
X121923877Y-98591200D01*
X121916123Y-98591200D01*
X121912816Y-98591177D01*
X121905451Y-98591126D01*
X121905447Y-98591126D01*
X121904937Y-98591122D01*
X121749544Y-98573692D01*
X121600497Y-98526411D01*
X121463471Y-98451081D01*
X121343687Y-98350570D01*
X121245707Y-98228708D01*
X121173263Y-98090135D01*
X121129114Y-97940130D01*
X121128278Y-97930939D01*
X121121788Y-97859627D01*
X121114943Y-97784407D01*
X121119663Y-97739501D01*
X121129972Y-97641408D01*
X121131287Y-97628896D01*
X121177526Y-97479523D01*
X121251898Y-97341975D01*
X121351570Y-97221492D01*
X121472746Y-97122664D01*
X121610809Y-97049254D01*
X121760502Y-97004059D01*
X121916123Y-96988800D01*
X121923877Y-96988800D01*
X121927184Y-96988823D01*
X121927184Y-96988823D01*
G37*
G36*
X125261200Y-98591200D02*
X123658800Y-98591200D01*
X123658800Y-96988800D01*
X125261200Y-96988800D01*
X125261200Y-98591200D01*
X125261200Y-98591200D01*
G37*
G36*
X133516200Y-98591200D02*
X131913800Y-98591200D01*
X131913800Y-96988800D01*
X133516200Y-96988800D01*
X133516200Y-98591200D01*
X133516200Y-98591200D01*
G37*
G36*
X130182184Y-96988823D02*
X130189549Y-96988874D01*
X130189553Y-96988874D01*
X130190063Y-96988878D01*
X130345456Y-97006308D01*
X130494503Y-97053589D01*
X130631529Y-97128919D01*
X130751313Y-97229430D01*
X130849293Y-97351292D01*
X130921737Y-97489865D01*
X130965886Y-97639870D01*
X130980057Y-97795593D01*
X130963713Y-97951104D01*
X130917474Y-98100477D01*
X130843102Y-98238025D01*
X130743430Y-98358508D01*
X130622254Y-98457336D01*
X130484191Y-98530746D01*
X130334498Y-98575941D01*
X130178877Y-98591200D01*
X130171123Y-98591200D01*
X130167816Y-98591177D01*
X130160451Y-98591126D01*
X130160447Y-98591126D01*
X130159937Y-98591122D01*
X130004544Y-98573692D01*
X129855497Y-98526411D01*
X129718471Y-98451081D01*
X129598687Y-98350570D01*
X129500707Y-98228708D01*
X129428263Y-98090135D01*
X129384114Y-97940130D01*
X129383278Y-97930939D01*
X129376788Y-97859627D01*
X129369943Y-97784407D01*
X129374663Y-97739501D01*
X129384972Y-97641408D01*
X129386287Y-97628896D01*
X129432526Y-97479523D01*
X129506898Y-97341975D01*
X129606570Y-97221492D01*
X129727746Y-97122664D01*
X129865809Y-97049254D01*
X130015502Y-97004059D01*
X130171123Y-96988800D01*
X130178877Y-96988800D01*
X130182184Y-96988823D01*
X130182184Y-96988823D01*
G37*
G36*
X127378861Y-97333189D02*
X127491089Y-97356226D01*
X127529844Y-97372517D01*
X127596704Y-97400622D01*
X127691684Y-97464687D01*
X127772415Y-97545984D01*
X127804114Y-97593695D01*
X127835814Y-97641408D01*
X127873797Y-97733563D01*
X127879473Y-97747333D01*
X127889028Y-97795593D01*
X127901725Y-97859716D01*
X127899898Y-97990574D01*
X127874516Y-98102295D01*
X127845805Y-98166780D01*
X127827918Y-98206956D01*
X127827917Y-98206957D01*
X127761877Y-98300576D01*
X127678910Y-98379584D01*
X127582177Y-98440972D01*
X127475363Y-98482402D01*
X127475360Y-98482403D01*
X127393268Y-98496878D01*
X127362536Y-98502297D01*
X127362535Y-98502297D01*
X127324355Y-98501497D01*
X127247994Y-98499898D01*
X127136099Y-98475296D01*
X127031113Y-98429429D01*
X126937036Y-98364044D01*
X126857451Y-98281631D01*
X126829327Y-98237991D01*
X126795388Y-98185328D01*
X126753213Y-98078806D01*
X126732532Y-97966124D01*
X126733023Y-97930939D01*
X126734131Y-97851565D01*
X126757951Y-97739501D01*
X126803084Y-97634198D01*
X126867811Y-97539666D01*
X126929202Y-97479548D01*
X126949668Y-97459506D01*
X127045533Y-97396775D01*
X127151758Y-97353857D01*
X127264296Y-97332389D01*
X127378861Y-97333189D01*
X127378861Y-97333189D01*
G37*
G36*
X127378861Y-92507189D02*
X127491089Y-92530226D01*
X127529844Y-92546517D01*
X127596704Y-92574622D01*
X127691684Y-92638687D01*
X127772415Y-92719984D01*
X127791175Y-92748221D01*
X127835814Y-92815408D01*
X127873797Y-92907563D01*
X127879473Y-92921333D01*
X127893157Y-92990444D01*
X127901725Y-93033716D01*
X127899898Y-93164574D01*
X127874516Y-93276295D01*
X127845805Y-93340780D01*
X127827918Y-93380956D01*
X127827917Y-93380957D01*
X127761877Y-93474576D01*
X127678910Y-93553584D01*
X127582177Y-93614972D01*
X127475363Y-93656402D01*
X127475360Y-93656403D01*
X127393268Y-93670878D01*
X127362536Y-93676297D01*
X127362535Y-93676297D01*
X127324355Y-93675497D01*
X127247994Y-93673898D01*
X127136099Y-93649296D01*
X127031113Y-93603429D01*
X126937036Y-93538044D01*
X126857451Y-93455631D01*
X126809327Y-93380957D01*
X126795388Y-93359328D01*
X126753213Y-93252806D01*
X126732532Y-93140124D01*
X126732532Y-93140121D01*
X126734131Y-93025565D01*
X126757951Y-92913501D01*
X126803084Y-92808198D01*
X126867811Y-92713666D01*
X126908739Y-92673587D01*
X126949668Y-92633506D01*
X127045533Y-92570775D01*
X127151758Y-92527857D01*
X127264296Y-92506389D01*
X127378861Y-92507189D01*
X127378861Y-92507189D01*
G37*
G36*
X105145037Y-90594516D02*
X105351783Y-90636955D01*
X105546343Y-90718741D01*
X105721315Y-90836760D01*
X105870033Y-90986521D01*
X105985617Y-91160490D01*
X105986826Y-91162310D01*
X106004044Y-91204084D01*
X106067253Y-91357441D01*
X106108229Y-91564384D01*
X106108229Y-91564387D01*
X106108246Y-91564473D01*
X106104880Y-91805536D01*
X106104861Y-91805619D01*
X106104861Y-91805627D01*
X106058123Y-92011343D01*
X105972279Y-92204152D01*
X105850619Y-92376617D01*
X105697782Y-92522161D01*
X105519585Y-92635248D01*
X105322809Y-92711573D01*
X105114965Y-92748221D01*
X104903959Y-92743801D01*
X104697825Y-92698480D01*
X104504426Y-92613985D01*
X104331117Y-92493533D01*
X104184507Y-92341714D01*
X104070177Y-92164308D01*
X103992483Y-91968076D01*
X103954384Y-91760493D01*
X103957332Y-91549452D01*
X104001210Y-91343017D01*
X104084354Y-91149028D01*
X104203592Y-90974886D01*
X104354387Y-90827217D01*
X104530988Y-90711653D01*
X104726674Y-90632590D01*
X104933988Y-90593043D01*
X105145037Y-90594516D01*
X105145037Y-90594516D01*
G37*
G36*
X110095037Y-89994516D02*
X110301783Y-90036955D01*
X110496343Y-90118741D01*
X110671315Y-90236760D01*
X110820033Y-90386521D01*
X110936825Y-90562308D01*
X110936826Y-90562310D01*
X110960862Y-90620627D01*
X111017253Y-90757441D01*
X111058229Y-90964384D01*
X111058229Y-90964387D01*
X111058246Y-90964473D01*
X111054880Y-91205536D01*
X111054861Y-91205619D01*
X111054861Y-91205627D01*
X111008123Y-91411343D01*
X110922279Y-91604152D01*
X110800619Y-91776617D01*
X110647782Y-91922161D01*
X110469585Y-92035248D01*
X110272809Y-92111573D01*
X110064965Y-92148221D01*
X109853959Y-92143801D01*
X109647825Y-92098480D01*
X109454426Y-92013985D01*
X109281117Y-91893533D01*
X109134507Y-91741714D01*
X109020177Y-91564308D01*
X108942483Y-91368076D01*
X108904384Y-91160493D01*
X108907332Y-90949452D01*
X108951210Y-90743017D01*
X109034354Y-90549028D01*
X109153592Y-90374886D01*
X109304387Y-90227217D01*
X109480988Y-90111653D01*
X109676674Y-90032590D01*
X109883988Y-89993043D01*
X110095037Y-89994516D01*
X110095037Y-89994516D01*
G37*
G36*
X133516200Y-91428400D02*
X131913800Y-91428400D01*
X131913800Y-89826000D01*
X133516200Y-89826000D01*
X133516200Y-91428400D01*
X133516200Y-91428400D01*
G37*
G36*
X130182184Y-89826023D02*
X130189549Y-89826074D01*
X130189553Y-89826074D01*
X130190063Y-89826078D01*
X130345456Y-89843508D01*
X130494503Y-89890789D01*
X130631529Y-89966119D01*
X130751313Y-90066630D01*
X130849293Y-90188492D01*
X130921737Y-90327065D01*
X130965886Y-90477070D01*
X130980057Y-90632793D01*
X130963713Y-90788304D01*
X130917474Y-90937677D01*
X130843102Y-91075225D01*
X130743430Y-91195708D01*
X130622254Y-91294536D01*
X130484191Y-91367946D01*
X130334498Y-91413141D01*
X130178877Y-91428400D01*
X130171123Y-91428400D01*
X130167816Y-91428377D01*
X130160451Y-91428326D01*
X130160447Y-91428326D01*
X130159937Y-91428322D01*
X130004544Y-91410892D01*
X129855497Y-91363611D01*
X129718471Y-91288281D01*
X129598687Y-91187770D01*
X129500707Y-91065908D01*
X129428263Y-90927335D01*
X129384114Y-90777330D01*
X129369943Y-90621607D01*
X129370037Y-90620716D01*
X129386286Y-90466110D01*
X129386287Y-90466096D01*
X129432526Y-90316723D01*
X129506898Y-90179175D01*
X129606570Y-90058692D01*
X129727746Y-89959864D01*
X129865809Y-89886454D01*
X130015502Y-89841259D01*
X130171123Y-89826000D01*
X130178877Y-89826000D01*
X130182184Y-89826023D01*
X130182184Y-89826023D01*
G37*
G36*
X116847184Y-89826023D02*
X116854549Y-89826074D01*
X116854553Y-89826074D01*
X116855063Y-89826078D01*
X117010456Y-89843508D01*
X117159503Y-89890789D01*
X117296529Y-89966119D01*
X117416313Y-90066630D01*
X117514293Y-90188492D01*
X117586737Y-90327065D01*
X117630886Y-90477070D01*
X117645057Y-90632793D01*
X117628713Y-90788304D01*
X117582474Y-90937677D01*
X117508102Y-91075225D01*
X117408430Y-91195708D01*
X117287254Y-91294536D01*
X117149191Y-91367946D01*
X116999498Y-91413141D01*
X116843877Y-91428400D01*
X116836123Y-91428400D01*
X116832816Y-91428377D01*
X116825451Y-91428326D01*
X116825447Y-91428326D01*
X116824937Y-91428322D01*
X116669544Y-91410892D01*
X116520497Y-91363611D01*
X116383471Y-91288281D01*
X116263687Y-91187770D01*
X116165707Y-91065908D01*
X116093263Y-90927335D01*
X116049114Y-90777330D01*
X116034943Y-90621607D01*
X116035037Y-90620716D01*
X116051286Y-90466110D01*
X116051287Y-90466096D01*
X116097526Y-90316723D01*
X116171898Y-90179175D01*
X116271570Y-90058692D01*
X116392746Y-89959864D01*
X116530809Y-89886454D01*
X116680502Y-89841259D01*
X116836123Y-89826000D01*
X116843877Y-89826000D01*
X116847184Y-89826023D01*
X116847184Y-89826023D01*
G37*
G36*
X119387184Y-89826023D02*
X119394549Y-89826074D01*
X119394553Y-89826074D01*
X119395063Y-89826078D01*
X119550456Y-89843508D01*
X119699503Y-89890789D01*
X119836529Y-89966119D01*
X119956313Y-90066630D01*
X120054293Y-90188492D01*
X120126737Y-90327065D01*
X120170886Y-90477070D01*
X120185057Y-90632793D01*
X120168713Y-90788304D01*
X120122474Y-90937677D01*
X120048102Y-91075225D01*
X119948430Y-91195708D01*
X119827254Y-91294536D01*
X119689191Y-91367946D01*
X119539498Y-91413141D01*
X119383877Y-91428400D01*
X119376123Y-91428400D01*
X119372816Y-91428377D01*
X119365451Y-91428326D01*
X119365447Y-91428326D01*
X119364937Y-91428322D01*
X119209544Y-91410892D01*
X119060497Y-91363611D01*
X118923471Y-91288281D01*
X118803687Y-91187770D01*
X118705707Y-91065908D01*
X118633263Y-90927335D01*
X118589114Y-90777330D01*
X118574943Y-90621607D01*
X118575037Y-90620716D01*
X118591286Y-90466110D01*
X118591287Y-90466096D01*
X118637526Y-90316723D01*
X118711898Y-90179175D01*
X118811570Y-90058692D01*
X118932746Y-89959864D01*
X119070809Y-89886454D01*
X119220502Y-89841259D01*
X119376123Y-89826000D01*
X119383877Y-89826000D01*
X119387184Y-89826023D01*
X119387184Y-89826023D01*
G37*
G36*
X121927184Y-89826023D02*
X121934549Y-89826074D01*
X121934553Y-89826074D01*
X121935063Y-89826078D01*
X122090456Y-89843508D01*
X122239503Y-89890789D01*
X122376529Y-89966119D01*
X122496313Y-90066630D01*
X122594293Y-90188492D01*
X122666737Y-90327065D01*
X122710886Y-90477070D01*
X122725057Y-90632793D01*
X122708713Y-90788304D01*
X122662474Y-90937677D01*
X122588102Y-91075225D01*
X122488430Y-91195708D01*
X122367254Y-91294536D01*
X122229191Y-91367946D01*
X122079498Y-91413141D01*
X121923877Y-91428400D01*
X121916123Y-91428400D01*
X121912816Y-91428377D01*
X121905451Y-91428326D01*
X121905447Y-91428326D01*
X121904937Y-91428322D01*
X121749544Y-91410892D01*
X121600497Y-91363611D01*
X121463471Y-91288281D01*
X121343687Y-91187770D01*
X121245707Y-91065908D01*
X121173263Y-90927335D01*
X121129114Y-90777330D01*
X121114943Y-90621607D01*
X121115037Y-90620716D01*
X121131286Y-90466110D01*
X121131287Y-90466096D01*
X121177526Y-90316723D01*
X121251898Y-90179175D01*
X121351570Y-90058692D01*
X121472746Y-89959864D01*
X121610809Y-89886454D01*
X121760502Y-89841259D01*
X121916123Y-89826000D01*
X121923877Y-89826000D01*
X121927184Y-89826023D01*
X121927184Y-89826023D01*
G37*
G36*
X125261200Y-91428400D02*
X123658800Y-91428400D01*
X123658800Y-89826000D01*
X125261200Y-89826000D01*
X125261200Y-91428400D01*
X125261200Y-91428400D01*
G37*
G36*
X135760861Y-90157689D02*
X135873089Y-90180726D01*
X135891563Y-90188492D01*
X135978704Y-90225122D01*
X136073684Y-90289187D01*
X136154415Y-90370484D01*
X136175625Y-90402408D01*
X136217814Y-90465908D01*
X136235299Y-90508331D01*
X136261473Y-90571833D01*
X136274367Y-90636955D01*
X136283725Y-90684216D01*
X136281898Y-90815074D01*
X136281878Y-90815162D01*
X136281878Y-90815164D01*
X136279139Y-90827218D01*
X136256516Y-90926795D01*
X136238189Y-90967957D01*
X136209918Y-91031456D01*
X136202035Y-91042631D01*
X136143877Y-91125076D01*
X136060910Y-91204084D01*
X135964177Y-91265472D01*
X135857363Y-91306902D01*
X135857360Y-91306903D01*
X135775268Y-91321378D01*
X135744536Y-91326797D01*
X135744535Y-91326797D01*
X135706355Y-91325997D01*
X135629994Y-91324398D01*
X135518099Y-91299796D01*
X135413113Y-91253929D01*
X135319036Y-91188544D01*
X135239451Y-91106131D01*
X135239450Y-91106130D01*
X135177388Y-91009828D01*
X135148821Y-90937677D01*
X135135213Y-90903307D01*
X135123000Y-90836760D01*
X135114532Y-90790624D01*
X135115077Y-90751574D01*
X135116131Y-90676065D01*
X135139951Y-90564001D01*
X135185084Y-90458698D01*
X135249811Y-90364166D01*
X135308206Y-90306982D01*
X135331668Y-90284006D01*
X135427533Y-90221275D01*
X135533758Y-90178357D01*
X135646296Y-90156889D01*
X135760861Y-90157689D01*
X135760861Y-90157689D01*
G37*
G36*
X127378861Y-90094189D02*
X127491089Y-90117226D01*
X127529844Y-90133517D01*
X127596704Y-90161622D01*
X127691684Y-90225687D01*
X127772415Y-90306984D01*
X127804114Y-90354695D01*
X127835814Y-90402408D01*
X127862064Y-90466096D01*
X127879473Y-90508333D01*
X127890160Y-90562308D01*
X127901725Y-90620716D01*
X127899898Y-90751574D01*
X127899878Y-90751662D01*
X127899878Y-90751664D01*
X127891553Y-90788304D01*
X127874516Y-90863295D01*
X127856701Y-90903307D01*
X127827918Y-90967956D01*
X127827917Y-90967957D01*
X127761877Y-91061576D01*
X127678910Y-91140584D01*
X127582177Y-91201972D01*
X127475363Y-91243402D01*
X127475360Y-91243403D01*
X127393268Y-91257878D01*
X127362536Y-91263297D01*
X127362535Y-91263297D01*
X127324355Y-91262497D01*
X127247994Y-91260898D01*
X127136099Y-91236296D01*
X127031113Y-91190429D01*
X126937036Y-91125044D01*
X126857451Y-91042631D01*
X126850249Y-91031456D01*
X126795388Y-90946328D01*
X126753213Y-90839806D01*
X126732532Y-90727124D01*
X126733131Y-90684216D01*
X126734131Y-90612565D01*
X126757951Y-90500501D01*
X126803084Y-90395198D01*
X126867811Y-90300666D01*
X126908739Y-90260587D01*
X126949668Y-90220506D01*
X127045533Y-90157775D01*
X127151758Y-90114857D01*
X127264296Y-90093389D01*
X127378861Y-90094189D01*
X127378861Y-90094189D01*
G37*
G36*
X127378861Y-85268189D02*
X127491089Y-85291226D01*
X127529844Y-85307517D01*
X127596704Y-85335622D01*
X127691684Y-85399687D01*
X127772415Y-85480984D01*
X127804113Y-85528695D01*
X127835814Y-85576408D01*
X127873797Y-85668563D01*
X127879473Y-85682333D01*
X127893157Y-85751444D01*
X127901725Y-85794716D01*
X127899898Y-85925574D01*
X127874516Y-86037295D01*
X127845805Y-86101780D01*
X127827918Y-86141956D01*
X127827917Y-86141957D01*
X127761877Y-86235576D01*
X127678910Y-86314584D01*
X127582177Y-86375972D01*
X127475363Y-86417402D01*
X127475360Y-86417403D01*
X127393268Y-86431878D01*
X127362536Y-86437297D01*
X127362535Y-86437297D01*
X127324355Y-86436497D01*
X127247994Y-86434898D01*
X127136099Y-86410296D01*
X127031113Y-86364429D01*
X126937036Y-86299044D01*
X126857451Y-86216631D01*
X126809327Y-86141957D01*
X126795388Y-86120328D01*
X126753213Y-86013806D01*
X126732532Y-85901124D01*
X126732532Y-85901121D01*
X126734131Y-85786565D01*
X126757951Y-85674501D01*
X126803084Y-85569198D01*
X126867811Y-85474666D01*
X126908739Y-85434587D01*
X126949668Y-85394506D01*
X127045533Y-85331775D01*
X127151758Y-85288857D01*
X127264296Y-85267389D01*
X127378861Y-85268189D01*
X127378861Y-85268189D01*
G37*
G36*
X133516200Y-84265600D02*
X131913800Y-84265600D01*
X131913800Y-82663200D01*
X133516200Y-82663200D01*
X133516200Y-84265600D01*
X133516200Y-84265600D01*
G37*
G36*
X130182184Y-82663223D02*
X130189549Y-82663274D01*
X130189553Y-82663274D01*
X130190063Y-82663278D01*
X130345456Y-82680708D01*
X130494503Y-82727989D01*
X130631529Y-82803319D01*
X130751313Y-82903830D01*
X130849293Y-83025692D01*
X130921737Y-83164265D01*
X130965886Y-83314270D01*
X130978420Y-83452001D01*
X130980057Y-83469996D01*
X130976844Y-83500565D01*
X130963713Y-83625504D01*
X130917474Y-83774877D01*
X130843102Y-83912425D01*
X130743430Y-84032908D01*
X130622254Y-84131736D01*
X130484191Y-84205146D01*
X130334498Y-84250341D01*
X130178877Y-84265600D01*
X130171123Y-84265600D01*
X130167816Y-84265577D01*
X130160451Y-84265526D01*
X130160447Y-84265526D01*
X130159937Y-84265522D01*
X130004544Y-84248092D01*
X129855497Y-84200811D01*
X129718471Y-84125481D01*
X129598687Y-84024970D01*
X129500707Y-83903108D01*
X129428263Y-83764535D01*
X129384114Y-83614530D01*
X129369943Y-83458807D01*
X129386287Y-83303296D01*
X129432526Y-83153923D01*
X129506898Y-83016375D01*
X129606570Y-82895892D01*
X129727746Y-82797064D01*
X129865809Y-82723654D01*
X130015502Y-82678459D01*
X130171123Y-82663200D01*
X130178877Y-82663200D01*
X130182184Y-82663223D01*
X130182184Y-82663223D01*
G37*
G36*
X125261200Y-84265600D02*
X123658800Y-84265600D01*
X123658800Y-82663200D01*
X125261200Y-82663200D01*
X125261200Y-84265600D01*
X125261200Y-84265600D01*
G37*
G36*
X121927184Y-82663223D02*
X121934549Y-82663274D01*
X121934553Y-82663274D01*
X121935063Y-82663278D01*
X122090456Y-82680708D01*
X122239503Y-82727989D01*
X122376529Y-82803319D01*
X122496313Y-82903830D01*
X122594293Y-83025692D01*
X122666737Y-83164265D01*
X122710886Y-83314270D01*
X122723420Y-83452001D01*
X122725057Y-83469996D01*
X122721844Y-83500565D01*
X122708713Y-83625504D01*
X122662474Y-83774877D01*
X122588102Y-83912425D01*
X122488430Y-84032908D01*
X122367254Y-84131736D01*
X122229191Y-84205146D01*
X122079498Y-84250341D01*
X121923877Y-84265600D01*
X121916123Y-84265600D01*
X121912816Y-84265577D01*
X121905451Y-84265526D01*
X121905447Y-84265526D01*
X121904937Y-84265522D01*
X121749544Y-84248092D01*
X121600497Y-84200811D01*
X121463471Y-84125481D01*
X121343687Y-84024970D01*
X121245707Y-83903108D01*
X121173263Y-83764535D01*
X121129114Y-83614530D01*
X121114943Y-83458807D01*
X121131287Y-83303296D01*
X121177526Y-83153923D01*
X121251898Y-83016375D01*
X121351570Y-82895892D01*
X121472746Y-82797064D01*
X121610809Y-82723654D01*
X121760502Y-82678459D01*
X121916123Y-82663200D01*
X121923877Y-82663200D01*
X121927184Y-82663223D01*
X121927184Y-82663223D01*
G37*
G36*
X119387184Y-82663223D02*
X119394549Y-82663274D01*
X119394553Y-82663274D01*
X119395063Y-82663278D01*
X119550456Y-82680708D01*
X119699503Y-82727989D01*
X119836529Y-82803319D01*
X119956313Y-82903830D01*
X120054293Y-83025692D01*
X120126737Y-83164265D01*
X120170886Y-83314270D01*
X120183420Y-83452001D01*
X120185057Y-83469996D01*
X120181844Y-83500565D01*
X120168713Y-83625504D01*
X120122474Y-83774877D01*
X120048102Y-83912425D01*
X119948430Y-84032908D01*
X119827254Y-84131736D01*
X119689191Y-84205146D01*
X119539498Y-84250341D01*
X119383877Y-84265600D01*
X119376123Y-84265600D01*
X119372816Y-84265577D01*
X119365451Y-84265526D01*
X119365447Y-84265526D01*
X119364937Y-84265522D01*
X119209544Y-84248092D01*
X119060497Y-84200811D01*
X118923471Y-84125481D01*
X118803687Y-84024970D01*
X118705707Y-83903108D01*
X118633263Y-83764535D01*
X118589114Y-83614530D01*
X118574943Y-83458807D01*
X118591287Y-83303296D01*
X118637526Y-83153923D01*
X118711898Y-83016375D01*
X118811570Y-82895892D01*
X118932746Y-82797064D01*
X119070809Y-82723654D01*
X119220502Y-82678459D01*
X119376123Y-82663200D01*
X119383877Y-82663200D01*
X119387184Y-82663223D01*
X119387184Y-82663223D01*
G37*
G36*
X116847184Y-82663223D02*
X116854549Y-82663274D01*
X116854553Y-82663274D01*
X116855063Y-82663278D01*
X117010456Y-82680708D01*
X117159503Y-82727989D01*
X117296529Y-82803319D01*
X117416313Y-82903830D01*
X117514293Y-83025692D01*
X117586737Y-83164265D01*
X117630886Y-83314270D01*
X117643420Y-83452001D01*
X117645057Y-83469996D01*
X117641844Y-83500565D01*
X117628713Y-83625504D01*
X117582474Y-83774877D01*
X117508102Y-83912425D01*
X117408430Y-84032908D01*
X117287254Y-84131736D01*
X117149191Y-84205146D01*
X116999498Y-84250341D01*
X116843877Y-84265600D01*
X116836123Y-84265600D01*
X116832816Y-84265577D01*
X116825451Y-84265526D01*
X116825447Y-84265526D01*
X116824937Y-84265522D01*
X116669544Y-84248092D01*
X116520497Y-84200811D01*
X116383471Y-84125481D01*
X116263687Y-84024970D01*
X116165707Y-83903108D01*
X116093263Y-83764535D01*
X116049114Y-83614530D01*
X116034943Y-83458807D01*
X116051287Y-83303296D01*
X116097526Y-83153923D01*
X116171898Y-83016375D01*
X116271570Y-82895892D01*
X116392746Y-82797064D01*
X116530809Y-82723654D01*
X116680502Y-82678459D01*
X116836123Y-82663200D01*
X116843877Y-82663200D01*
X116847184Y-82663223D01*
X116847184Y-82663223D01*
G37*
G36*
X127378861Y-83045689D02*
X127491089Y-83068726D01*
X127529844Y-83085017D01*
X127596704Y-83113122D01*
X127691684Y-83177187D01*
X127772415Y-83258484D01*
X127793625Y-83290408D01*
X127835814Y-83353908D01*
X127853299Y-83396331D01*
X127879473Y-83459833D01*
X127881485Y-83469996D01*
X127901725Y-83572216D01*
X127899898Y-83703074D01*
X127874516Y-83814795D01*
X127856189Y-83855957D01*
X127827918Y-83919456D01*
X127820035Y-83930631D01*
X127761877Y-84013076D01*
X127678910Y-84092084D01*
X127582177Y-84153472D01*
X127475363Y-84194902D01*
X127475360Y-84194903D01*
X127393268Y-84209378D01*
X127362536Y-84214797D01*
X127362535Y-84214797D01*
X127324355Y-84213997D01*
X127247994Y-84212398D01*
X127136099Y-84187796D01*
X127031113Y-84141929D01*
X126937036Y-84076544D01*
X126857451Y-83994131D01*
X126857450Y-83994130D01*
X126795388Y-83897828D01*
X126753213Y-83791306D01*
X126732532Y-83678624D01*
X126733077Y-83639574D01*
X126734131Y-83564065D01*
X126757951Y-83452001D01*
X126803084Y-83346698D01*
X126867811Y-83252166D01*
X126926206Y-83194982D01*
X126949668Y-83172006D01*
X127045533Y-83109275D01*
X127151758Y-83066357D01*
X127264296Y-83044889D01*
X127378861Y-83045689D01*
X127378861Y-83045689D01*
G37*
G36*
X135633861Y-82982189D02*
X135746089Y-83005226D01*
X135772611Y-83016375D01*
X135851704Y-83049622D01*
X135946684Y-83113687D01*
X136027415Y-83194984D01*
X136059113Y-83242695D01*
X136090814Y-83290408D01*
X136128797Y-83382563D01*
X136134473Y-83396333D01*
X136145495Y-83452001D01*
X136156725Y-83508716D01*
X136154898Y-83639574D01*
X136129516Y-83751295D01*
X136111701Y-83791307D01*
X136082918Y-83855956D01*
X136082917Y-83855957D01*
X136016877Y-83949576D01*
X135933910Y-84028584D01*
X135837177Y-84089972D01*
X135745757Y-84125431D01*
X135730360Y-84131403D01*
X135648268Y-84145878D01*
X135617536Y-84151297D01*
X135617535Y-84151297D01*
X135579355Y-84150497D01*
X135502994Y-84148898D01*
X135391099Y-84124296D01*
X135286113Y-84078429D01*
X135192036Y-84013044D01*
X135112451Y-83930631D01*
X135100696Y-83912391D01*
X135050388Y-83834328D01*
X135008213Y-83727806D01*
X134987532Y-83615124D01*
X134988131Y-83572216D01*
X134989131Y-83500565D01*
X135012951Y-83388501D01*
X135058084Y-83283198D01*
X135122811Y-83188666D01*
X135163739Y-83148587D01*
X135204668Y-83108506D01*
X135300533Y-83045775D01*
X135406758Y-83002857D01*
X135519296Y-82981389D01*
X135633861Y-82982189D01*
X135633861Y-82982189D01*
G37*
G36*
X114361361Y-80696189D02*
X114473589Y-80719226D01*
X114512344Y-80735517D01*
X114579204Y-80763622D01*
X114674184Y-80827687D01*
X114754915Y-80908984D01*
X114786614Y-80956695D01*
X114818314Y-81004408D01*
X114856297Y-81096563D01*
X114861973Y-81110333D01*
X114875657Y-81179444D01*
X114884225Y-81222716D01*
X114882398Y-81353574D01*
X114857016Y-81465295D01*
X114828305Y-81529780D01*
X114810418Y-81569956D01*
X114810417Y-81569957D01*
X114744377Y-81663576D01*
X114661410Y-81742584D01*
X114564677Y-81803972D01*
X114457863Y-81845402D01*
X114457860Y-81845403D01*
X114375768Y-81859878D01*
X114345036Y-81865297D01*
X114345035Y-81865297D01*
X114306855Y-81864497D01*
X114230494Y-81862898D01*
X114118599Y-81838296D01*
X114013613Y-81792429D01*
X113919536Y-81727044D01*
X113839951Y-81644631D01*
X113791827Y-81569957D01*
X113777888Y-81548328D01*
X113735713Y-81441806D01*
X113715032Y-81329124D01*
X113715032Y-81329121D01*
X113716631Y-81214565D01*
X113740451Y-81102501D01*
X113785584Y-80997198D01*
X113850311Y-80902666D01*
X113891239Y-80862587D01*
X113932168Y-80822506D01*
X114028033Y-80759775D01*
X114134258Y-80716857D01*
X114246796Y-80695389D01*
X114361361Y-80696189D01*
X114361361Y-80696189D01*
G37*
G36*
X130236361Y-78791189D02*
X130348589Y-78814226D01*
X130387344Y-78830517D01*
X130454204Y-78858622D01*
X130549184Y-78922687D01*
X130629915Y-79003984D01*
X130661613Y-79051695D01*
X130693314Y-79099408D01*
X130731297Y-79191563D01*
X130736973Y-79205333D01*
X130750657Y-79274444D01*
X130759225Y-79317716D01*
X130757398Y-79448574D01*
X130732016Y-79560295D01*
X130703305Y-79624780D01*
X130685418Y-79664956D01*
X130685417Y-79664957D01*
X130619377Y-79758576D01*
X130536410Y-79837584D01*
X130439677Y-79898972D01*
X130332863Y-79940402D01*
X130332860Y-79940403D01*
X130250768Y-79954878D01*
X130220036Y-79960297D01*
X130220035Y-79960297D01*
X130181855Y-79959497D01*
X130105494Y-79957898D01*
X129993599Y-79933296D01*
X129888613Y-79887429D01*
X129794536Y-79822044D01*
X129714951Y-79739631D01*
X129666827Y-79664957D01*
X129652888Y-79643328D01*
X129610713Y-79536806D01*
X129590032Y-79424124D01*
X129590032Y-79424121D01*
X129591631Y-79309565D01*
X129615451Y-79197501D01*
X129660584Y-79092198D01*
X129725311Y-78997666D01*
X129766239Y-78957587D01*
X129807168Y-78917506D01*
X129903033Y-78854775D01*
X130009258Y-78811857D01*
X130121796Y-78790389D01*
X130236361Y-78791189D01*
X130236361Y-78791189D01*
G37*
G36*
X138606057Y-74524916D02*
X138928066Y-74591015D01*
X139231099Y-74718398D01*
X139503619Y-74902216D01*
X139735250Y-75135469D01*
X139917157Y-75409262D01*
X140042424Y-75713183D01*
X140106255Y-76035551D01*
X140106255Y-76035559D01*
X140106271Y-76035640D01*
X140101029Y-76411100D01*
X140101010Y-76411183D01*
X140101010Y-76411191D01*
X140028203Y-76731649D01*
X139894500Y-77031951D01*
X139705013Y-77300566D01*
X139466966Y-77527255D01*
X139189421Y-77703390D01*
X138882941Y-77822266D01*
X138559218Y-77879347D01*
X138230573Y-77872463D01*
X137909518Y-77801874D01*
X137608294Y-77670273D01*
X137383426Y-77513985D01*
X137338365Y-77482667D01*
X137279934Y-77422160D01*
X137110016Y-77246206D01*
X136931945Y-76969894D01*
X136810936Y-76664258D01*
X136751596Y-76340942D01*
X136756186Y-76012248D01*
X136824530Y-75690717D01*
X136954026Y-75388577D01*
X137139741Y-75117347D01*
X137374605Y-74887351D01*
X137649665Y-74707358D01*
X137954449Y-74584217D01*
X138277345Y-74522621D01*
X138606057Y-74524916D01*
X138606057Y-74524916D01*
G37*
G36*
X115746057Y-74524916D02*
X116068066Y-74591015D01*
X116371099Y-74718398D01*
X116643619Y-74902216D01*
X116875250Y-75135469D01*
X117057157Y-75409262D01*
X117182424Y-75713183D01*
X117246255Y-76035551D01*
X117246255Y-76035559D01*
X117246271Y-76035640D01*
X117241029Y-76411100D01*
X117241010Y-76411183D01*
X117241010Y-76411191D01*
X117168203Y-76731649D01*
X117034500Y-77031951D01*
X116845013Y-77300566D01*
X116606966Y-77527255D01*
X116329421Y-77703390D01*
X116022941Y-77822266D01*
X115699218Y-77879347D01*
X115370573Y-77872463D01*
X115049518Y-77801874D01*
X114748294Y-77670273D01*
X114523426Y-77513985D01*
X114478365Y-77482667D01*
X114419934Y-77422160D01*
X114250016Y-77246206D01*
X114071945Y-76969894D01*
X113950936Y-76664258D01*
X113891596Y-76340942D01*
X113896186Y-76012248D01*
X113964530Y-75690717D01*
X114094026Y-75388577D01*
X114279741Y-75117347D01*
X114514605Y-74887351D01*
X114789665Y-74707358D01*
X115094449Y-74584217D01*
X115417345Y-74522621D01*
X115746057Y-74524916D01*
X115746057Y-74524916D01*
G37*
G36*
X110095037Y-75494516D02*
X110301783Y-75536955D01*
X110496343Y-75618741D01*
X110671315Y-75736760D01*
X110820033Y-75886521D01*
X110936825Y-76062308D01*
X111017253Y-76257441D01*
X111058229Y-76464384D01*
X111058229Y-76464387D01*
X111058246Y-76464473D01*
X111054880Y-76705536D01*
X111054861Y-76705619D01*
X111054861Y-76705627D01*
X111008123Y-76911343D01*
X110922279Y-77104152D01*
X110800619Y-77276617D01*
X110647782Y-77422161D01*
X110469585Y-77535248D01*
X110272809Y-77611573D01*
X110064965Y-77648221D01*
X109853959Y-77643801D01*
X109647825Y-77598480D01*
X109454426Y-77513985D01*
X109281117Y-77393533D01*
X109134507Y-77241714D01*
X109020177Y-77064308D01*
X108942483Y-76868076D01*
X108904384Y-76660493D01*
X108907332Y-76449452D01*
X108951210Y-76243017D01*
X109034354Y-76049028D01*
X109153592Y-75874886D01*
X109304387Y-75727217D01*
X109480988Y-75611653D01*
X109676674Y-75532590D01*
X109883988Y-75493043D01*
X110095037Y-75494516D01*
X110095037Y-75494516D01*
G37*
G36*
X105145037Y-74894516D02*
X105351783Y-74936955D01*
X105546343Y-75018741D01*
X105721315Y-75136760D01*
X105870033Y-75286521D01*
X105986825Y-75462308D01*
X105986826Y-75462310D01*
X106000100Y-75494516D01*
X106067253Y-75657441D01*
X106108229Y-75864384D01*
X106108229Y-75864387D01*
X106108246Y-75864473D01*
X106104880Y-76105536D01*
X106104861Y-76105619D01*
X106104861Y-76105627D01*
X106058123Y-76311343D01*
X105972279Y-76504152D01*
X105850619Y-76676617D01*
X105697782Y-76822161D01*
X105519585Y-76935248D01*
X105322809Y-77011573D01*
X105114965Y-77048221D01*
X104903959Y-77043801D01*
X104697825Y-76998480D01*
X104504426Y-76913985D01*
X104331117Y-76793533D01*
X104184507Y-76641714D01*
X104070177Y-76464308D01*
X103992483Y-76268076D01*
X103954384Y-76060493D01*
X103957332Y-75849452D01*
X104001210Y-75643017D01*
X104084354Y-75449028D01*
X104203592Y-75274886D01*
X104354387Y-75127217D01*
X104530988Y-75011653D01*
X104726674Y-74932590D01*
X104933988Y-74893043D01*
X105145037Y-74894516D01*
X105145037Y-74894516D01*
G37*
G36*
X107706561Y-73990589D02*
X107818789Y-74013626D01*
X107857544Y-74029917D01*
X107924404Y-74058022D01*
X108019384Y-74122087D01*
X108100115Y-74203384D01*
X108131814Y-74251095D01*
X108163514Y-74298808D01*
X108201497Y-74390963D01*
X108207173Y-74404733D01*
X108220857Y-74473844D01*
X108229425Y-74517116D01*
X108227598Y-74647974D01*
X108202216Y-74759695D01*
X108173505Y-74824180D01*
X108155618Y-74864356D01*
X108155617Y-74864357D01*
X108089577Y-74957976D01*
X108006610Y-75036984D01*
X107909877Y-75098372D01*
X107803063Y-75139802D01*
X107803060Y-75139803D01*
X107720968Y-75154278D01*
X107690236Y-75159697D01*
X107690235Y-75159697D01*
X107652055Y-75158897D01*
X107575694Y-75157298D01*
X107463799Y-75132696D01*
X107358813Y-75086829D01*
X107264736Y-75021444D01*
X107185151Y-74939031D01*
X107183813Y-74936955D01*
X107123088Y-74842728D01*
X107080913Y-74736206D01*
X107060232Y-74623524D01*
X107060781Y-74584217D01*
X107061831Y-74508965D01*
X107085651Y-74396901D01*
X107130784Y-74291598D01*
X107195511Y-74197066D01*
X107236439Y-74156987D01*
X107277368Y-74116906D01*
X107373233Y-74054175D01*
X107479458Y-74011257D01*
X107591996Y-73989789D01*
X107706561Y-73990589D01*
X107706561Y-73990589D01*
G37*
G36*
X135265561Y-70764789D02*
X135377789Y-70787826D01*
X135416544Y-70804117D01*
X135483404Y-70832222D01*
X135578384Y-70896287D01*
X135659115Y-70977584D01*
X135679967Y-71008970D01*
X135722514Y-71073008D01*
X135760497Y-71165163D01*
X135766173Y-71178933D01*
X135779857Y-71248044D01*
X135788425Y-71291316D01*
X135786598Y-71422174D01*
X135761216Y-71533895D01*
X135732505Y-71598380D01*
X135714618Y-71638556D01*
X135714617Y-71638557D01*
X135648577Y-71732176D01*
X135565610Y-71811184D01*
X135468877Y-71872572D01*
X135362063Y-71914002D01*
X135362060Y-71914003D01*
X135279968Y-71928478D01*
X135249236Y-71933897D01*
X135249235Y-71933897D01*
X135211055Y-71933097D01*
X135134694Y-71931498D01*
X135022799Y-71906896D01*
X134917813Y-71861029D01*
X134823736Y-71795644D01*
X134744151Y-71713231D01*
X134696027Y-71638557D01*
X134682088Y-71616928D01*
X134639913Y-71510406D01*
X134619232Y-71397724D01*
X134619232Y-71397721D01*
X134620831Y-71283165D01*
X134644651Y-71171101D01*
X134689784Y-71065798D01*
X134754511Y-70971266D01*
X134795439Y-70931187D01*
X134836368Y-70891106D01*
X134932233Y-70828375D01*
X135038458Y-70785457D01*
X135150996Y-70763989D01*
X135265561Y-70764789D01*
X135265561Y-70764789D01*
G37*
G36*
X132674761Y-69901189D02*
X132786989Y-69924226D01*
X132825744Y-69940517D01*
X132892604Y-69968622D01*
X132987584Y-70032687D01*
X133068315Y-70113984D01*
X133100014Y-70161695D01*
X133131714Y-70209408D01*
X133169697Y-70301563D01*
X133175373Y-70315333D01*
X133189057Y-70384444D01*
X133197625Y-70427716D01*
X133195798Y-70558574D01*
X133170416Y-70670295D01*
X133141705Y-70734780D01*
X133123818Y-70774956D01*
X133101804Y-70806163D01*
X133057777Y-70868576D01*
X132974810Y-70947584D01*
X132878077Y-71008972D01*
X132771263Y-71050402D01*
X132771260Y-71050403D01*
X132689168Y-71064878D01*
X132658436Y-71070297D01*
X132658435Y-71070297D01*
X132620255Y-71069497D01*
X132543894Y-71067898D01*
X132431999Y-71043296D01*
X132327013Y-70997429D01*
X132232936Y-70932044D01*
X132153351Y-70849631D01*
X132142132Y-70832223D01*
X132091288Y-70753328D01*
X132058412Y-70670293D01*
X132049113Y-70646807D01*
X132032936Y-70558664D01*
X132028432Y-70534124D01*
X132028432Y-70534121D01*
X132030031Y-70419565D01*
X132053851Y-70307501D01*
X132098984Y-70202198D01*
X132163711Y-70107666D01*
X132204639Y-70067587D01*
X132245568Y-70027506D01*
X132341433Y-69964775D01*
X132447658Y-69921857D01*
X132560196Y-69900389D01*
X132674761Y-69901189D01*
X132674761Y-69901189D01*
G37*
G36*
X139866200Y-70651200D02*
X138263800Y-70651200D01*
X138263800Y-69048800D01*
X139866200Y-69048800D01*
X139866200Y-70651200D01*
X139866200Y-70651200D01*
G37*
G36*
X135265561Y-68732789D02*
X135377789Y-68755826D01*
X135416544Y-68772117D01*
X135483404Y-68800222D01*
X135578384Y-68864287D01*
X135659115Y-68945584D01*
X135690813Y-68993295D01*
X135722514Y-69041008D01*
X135760497Y-69133163D01*
X135766173Y-69146933D01*
X135779857Y-69216044D01*
X135788425Y-69259316D01*
X135786598Y-69390174D01*
X135761216Y-69501895D01*
X135732505Y-69566380D01*
X135714618Y-69606556D01*
X135714617Y-69606557D01*
X135648577Y-69700176D01*
X135565610Y-69779184D01*
X135468877Y-69840572D01*
X135362063Y-69882002D01*
X135362060Y-69882003D01*
X135279968Y-69896478D01*
X135249236Y-69901897D01*
X135249235Y-69901897D01*
X135211055Y-69901097D01*
X135134694Y-69899498D01*
X135022799Y-69874896D01*
X134917813Y-69829029D01*
X134823736Y-69763644D01*
X134744151Y-69681231D01*
X134696027Y-69606557D01*
X134682088Y-69584928D01*
X134639913Y-69478406D01*
X134619232Y-69365724D01*
X134619232Y-69365721D01*
X134620831Y-69251165D01*
X134644651Y-69139101D01*
X134689784Y-69033798D01*
X134754511Y-68939266D01*
X134795439Y-68899187D01*
X134836368Y-68859106D01*
X134932233Y-68796375D01*
X135038458Y-68753457D01*
X135150996Y-68731989D01*
X135265561Y-68732789D01*
X135265561Y-68732789D01*
G37*
G36*
X139072184Y-66508823D02*
X139079549Y-66508874D01*
X139079553Y-66508874D01*
X139080063Y-66508878D01*
X139235456Y-66526308D01*
X139384503Y-66573589D01*
X139521529Y-66648919D01*
X139641313Y-66749430D01*
X139739293Y-66871292D01*
X139811737Y-67009865D01*
X139855886Y-67159870D01*
X139870057Y-67315593D01*
X139853713Y-67471104D01*
X139807474Y-67620477D01*
X139733102Y-67758025D01*
X139633430Y-67878508D01*
X139512254Y-67977336D01*
X139374191Y-68050746D01*
X139224498Y-68095941D01*
X139068877Y-68111200D01*
X139061123Y-68111200D01*
X139057816Y-68111177D01*
X139050451Y-68111126D01*
X139050447Y-68111126D01*
X139049937Y-68111122D01*
X138894544Y-68093692D01*
X138745497Y-68046411D01*
X138608471Y-67971081D01*
X138488687Y-67870570D01*
X138390707Y-67748708D01*
X138318263Y-67610135D01*
X138274114Y-67460130D01*
X138259943Y-67304407D01*
X138276287Y-67148896D01*
X138322526Y-66999523D01*
X138396898Y-66861975D01*
X138496570Y-66741492D01*
X138617746Y-66642664D01*
X138755809Y-66569254D01*
X138905502Y-66524059D01*
X139061123Y-66508800D01*
X139068877Y-66508800D01*
X139072184Y-66508823D01*
X139072184Y-66508823D01*
G37*
G36*
X139072184Y-63968823D02*
X139079549Y-63968874D01*
X139079553Y-63968874D01*
X139080063Y-63968878D01*
X139235456Y-63986308D01*
X139384503Y-64033589D01*
X139521529Y-64108919D01*
X139641313Y-64209430D01*
X139739293Y-64331292D01*
X139811737Y-64469865D01*
X139855886Y-64619870D01*
X139870057Y-64775593D01*
X139853713Y-64931104D01*
X139807474Y-65080477D01*
X139733102Y-65218025D01*
X139633430Y-65338508D01*
X139512254Y-65437336D01*
X139374191Y-65510746D01*
X139224498Y-65555941D01*
X139068877Y-65571200D01*
X139061123Y-65571200D01*
X139057816Y-65571177D01*
X139050451Y-65571126D01*
X139050447Y-65571126D01*
X139049937Y-65571122D01*
X138894544Y-65553692D01*
X138745497Y-65506411D01*
X138608471Y-65431081D01*
X138488687Y-65330570D01*
X138390707Y-65208708D01*
X138318263Y-65070135D01*
X138274114Y-64920130D01*
X138259943Y-64764407D01*
X138276287Y-64608896D01*
X138322526Y-64459523D01*
X138396898Y-64321975D01*
X138496570Y-64201492D01*
X138617746Y-64102664D01*
X138755809Y-64029254D01*
X138905502Y-63984059D01*
X139061123Y-63968800D01*
X139068877Y-63968800D01*
X139072184Y-63968823D01*
X139072184Y-63968823D01*
G37*
M02*
