G04 #@! TF.FileFunction,Copper,L1,Top,Signal*
%FSLAX46Y46*%
G04 Gerber Fmt 4.6, Leading zero omitted, Abs format (unit mm)*
G04 Created by KiCad (PCBNEW 4.0.2-stable) date Monday, September 10, 2018 'AMt' 08:27:29 AM*
%MOMM*%
G01*
G04 APERTURE LIST*
%ADD10C,0.050000*%
%ADD11C,1.016000*%
%ADD12C,2.000000*%
%ADD13R,1.900000X0.300000*%
%ADD14R,1.450000X1.450000*%
%ADD15O,1.450000X1.450000*%
%ADD16C,0.600000*%
%ADD17C,0.250000*%
G04 APERTURE END LIST*
D10*
D11*
X112268000Y-99771200D03*
X140411200Y-85623400D03*
X102870000Y-63500000D03*
D12*
X105032000Y-75970000D03*
X105032000Y-91670000D03*
X109982000Y-76570000D03*
X109982000Y-91070000D03*
D13*
X110882000Y-88570000D03*
X110882000Y-88070000D03*
X110882000Y-87570000D03*
X110882000Y-87070000D03*
X110882000Y-86570000D03*
X110882000Y-86070000D03*
X110882000Y-85570000D03*
X110882000Y-85070000D03*
X110882000Y-84570000D03*
X110882000Y-84070000D03*
X110882000Y-83570000D03*
X110882000Y-83070000D03*
X110882000Y-82570000D03*
X110882000Y-82070000D03*
X110882000Y-81570000D03*
X110882000Y-81070000D03*
X110882000Y-80570000D03*
X110882000Y-80070000D03*
X110882000Y-79570000D03*
D14*
X139065000Y-69850000D03*
D15*
X139065000Y-67310000D03*
X139065000Y-64770000D03*
D14*
X124460000Y-83464400D03*
D15*
X121920000Y-83464400D03*
X119380000Y-83464400D03*
X116840000Y-83464400D03*
D14*
X124460000Y-90627200D03*
D15*
X121920000Y-90627200D03*
X119380000Y-90627200D03*
X116840000Y-90627200D03*
D14*
X124460000Y-97790000D03*
D15*
X121920000Y-97790000D03*
X119380000Y-97790000D03*
X116840000Y-97790000D03*
D14*
X132715000Y-83464400D03*
D15*
X130175000Y-83464400D03*
D14*
X132715000Y-90627200D03*
D15*
X130175000Y-90627200D03*
D14*
X132715000Y-97790000D03*
D15*
X130175000Y-97790000D03*
D16*
X108940600Y-83566000D03*
X108940600Y-86563200D03*
X108940600Y-85039200D03*
X108940600Y-80264000D03*
X108940600Y-81076800D03*
X133985000Y-69545200D03*
X133985000Y-70485000D03*
X134003655Y-71350243D03*
X116840000Y-87249000D03*
X112953800Y-79349600D03*
X112953800Y-80060800D03*
D17*
X109678000Y-83566000D02*
X108940600Y-83566000D01*
X110882000Y-83570000D02*
X109682000Y-83570000D01*
X109682000Y-83570000D02*
X109678000Y-83566000D01*
X109675200Y-86563200D02*
X108940600Y-86563200D01*
X110882000Y-86570000D02*
X109682000Y-86570000D01*
X109682000Y-86570000D02*
X109675200Y-86563200D01*
X109651200Y-85039200D02*
X108940600Y-85039200D01*
X110882000Y-85070000D02*
X109682000Y-85070000D01*
X109682000Y-85070000D02*
X109651200Y-85039200D01*
X109246600Y-80570000D02*
X108940600Y-80264000D01*
X110882000Y-80570000D02*
X109246600Y-80570000D01*
X109675200Y-81076800D02*
X108940600Y-81076800D01*
X110882000Y-81070000D02*
X109682000Y-81070000D01*
X109682000Y-81070000D02*
X109675200Y-81076800D01*
X139065000Y-64770000D02*
X139065000Y-65024000D01*
X139065000Y-65024000D02*
X134543800Y-69545200D01*
X134543800Y-69545200D02*
X133985000Y-69545200D01*
X133560736Y-69545200D02*
X133985000Y-69545200D01*
X112928400Y-69545200D02*
X133560736Y-69545200D01*
X106934000Y-87566500D02*
X106934000Y-75539600D01*
X107937500Y-88570000D02*
X106934000Y-87566500D01*
X106934000Y-75539600D02*
X112928400Y-69545200D01*
X110882000Y-88570000D02*
X107937500Y-88570000D01*
X133985000Y-70485000D02*
X135509000Y-70485000D01*
X135509000Y-70485000D02*
X138684000Y-67310000D01*
X138684000Y-67310000D02*
X139065000Y-67310000D01*
X110882000Y-88070000D02*
X108263000Y-88070000D01*
X108263000Y-88070000D02*
X107442000Y-87249000D01*
X107442000Y-87249000D02*
X107442000Y-75668010D01*
X107442000Y-75668010D02*
X112625010Y-70485000D01*
X112625010Y-70485000D02*
X133985000Y-70485000D01*
X139065000Y-69850000D02*
X138404600Y-69850000D01*
X138404600Y-69850000D02*
X136904357Y-71350243D01*
X136904357Y-71350243D02*
X134427919Y-71350243D01*
X134427919Y-71350243D02*
X134003655Y-71350243D01*
X110882000Y-87570000D02*
X108652000Y-87570000D01*
X108652000Y-87570000D02*
X108013500Y-86931500D01*
X108013500Y-86931500D02*
X108013500Y-75732920D01*
X108013500Y-75732920D02*
X112397820Y-71348600D01*
X112397820Y-71348600D02*
X134002012Y-71348600D01*
X134002012Y-71348600D02*
X134003655Y-71350243D01*
X110882000Y-87070000D02*
X114733000Y-87070000D01*
X114733000Y-87070000D02*
X115265200Y-86537800D01*
X123126500Y-99123500D02*
X124460000Y-97790000D01*
X115265200Y-86537800D02*
X117322600Y-86537800D01*
X117322600Y-86537800D02*
X118059200Y-87274400D01*
X118059200Y-87274400D02*
X118059200Y-98374200D01*
X118059200Y-98374200D02*
X118808500Y-99123500D01*
X118808500Y-99123500D02*
X123126500Y-99123500D01*
X110882000Y-86070000D02*
X119064600Y-86070000D01*
X121462800Y-97332800D02*
X121920000Y-97790000D01*
X119064600Y-86070000D02*
X120700800Y-87706200D01*
X120700800Y-87706200D02*
X120700800Y-96570800D01*
X120700800Y-96570800D02*
X121462800Y-97332800D01*
X124460000Y-89652200D02*
X124460000Y-90627200D01*
X120391422Y-85583622D02*
X124460000Y-89652200D01*
X115310578Y-85570000D02*
X115324200Y-85583622D01*
X115324200Y-85583622D02*
X120391422Y-85583622D01*
X110882000Y-85570000D02*
X115310578Y-85570000D01*
X125298200Y-92202000D02*
X123494800Y-92202000D01*
X122644999Y-91352199D02*
X121920000Y-90627200D01*
X115510600Y-85133611D02*
X121557211Y-85133611D01*
X125806200Y-91694000D02*
X125298200Y-92202000D01*
X121557211Y-85133611D02*
X125806200Y-89382600D01*
X110882000Y-84570000D02*
X114946990Y-84570000D01*
X125806200Y-89382600D02*
X125806200Y-91694000D01*
X123494800Y-92202000D02*
X122644999Y-91352199D01*
X114946990Y-84570000D02*
X115510600Y-85133611D01*
X123317000Y-84683600D02*
X124460000Y-83540600D01*
X110882000Y-84070000D02*
X115083400Y-84070000D01*
X115083400Y-84070000D02*
X115697000Y-84683600D01*
X115697000Y-84683600D02*
X123317000Y-84683600D01*
X124460000Y-83540600D02*
X124460000Y-83464400D01*
X110882000Y-83070000D02*
X114731800Y-83070000D01*
X114731800Y-83070000D02*
X115387401Y-82414399D01*
X115387401Y-82414399D02*
X120869999Y-82414399D01*
X120869999Y-82414399D02*
X121195001Y-82739401D01*
X121195001Y-82739401D02*
X121920000Y-83464400D01*
X110882000Y-81570000D02*
X113756000Y-81570000D01*
X113756000Y-81570000D02*
X114261634Y-81064366D01*
X114261634Y-81064366D02*
X132550166Y-81064366D01*
X132550166Y-81064366D02*
X134289800Y-82804000D01*
X134289800Y-82804000D02*
X134289800Y-96215200D01*
X134289800Y-96215200D02*
X132715000Y-97790000D01*
X110882000Y-82070000D02*
X114068800Y-82070000D01*
X114068800Y-82070000D02*
X114624423Y-81514377D01*
X114624423Y-81514377D02*
X131323777Y-81514377D01*
X131323777Y-81514377D02*
X132715000Y-82905600D01*
X132715000Y-82905600D02*
X132715000Y-83464400D01*
X125550788Y-81964388D02*
X132715000Y-89128600D01*
X132715000Y-89128600D02*
X132715000Y-90627200D01*
X114356200Y-82570000D02*
X114961812Y-81964388D01*
X114961812Y-81964388D02*
X125550788Y-81964388D01*
X110882000Y-82570000D02*
X114356200Y-82570000D01*
X116840000Y-90627200D02*
X116840000Y-87249000D01*
X116840000Y-90627200D02*
X116840000Y-97790000D01*
X116814600Y-97764600D02*
X116840000Y-97790000D01*
X112302400Y-79349600D02*
X112953800Y-79349600D01*
X110882000Y-79570000D02*
X112082000Y-79570000D01*
X112082000Y-79570000D02*
X112302400Y-79349600D01*
X112091200Y-80060800D02*
X112953800Y-80060800D01*
X110882000Y-80070000D02*
X112082000Y-80070000D01*
X112082000Y-80070000D02*
X112091200Y-80060800D01*
M02*
