G04 #@! TF.FileFunction,Soldermask,Top*
%FSLAX46Y46*%
G04 Gerber Fmt 4.6, Leading zero omitted, Abs format (unit mm)*
G04 Created by KiCad (PCBNEW 4.0.2-stable) date Monday, September 10, 2018 'AMt' 08:27:29 AM*
%MOMM*%
G01*
G04 APERTURE LIST*
%ADD10C,0.050000*%
G04 APERTURE END LIST*
D10*
G36*
X112374715Y-98755877D02*
X112569893Y-98795941D01*
X112569896Y-98795942D01*
X112569895Y-98795942D01*
X112753572Y-98873153D01*
X112918756Y-98984570D01*
X112989450Y-99055760D01*
X113059153Y-99125951D01*
X113169415Y-99291909D01*
X113245343Y-99476123D01*
X113284044Y-99671576D01*
X113280866Y-99899155D01*
X113236723Y-100093451D01*
X113186790Y-100205600D01*
X113155682Y-100275472D01*
X113155681Y-100275473D01*
X113040828Y-100438288D01*
X112896539Y-100575693D01*
X112728308Y-100682455D01*
X112542545Y-100754508D01*
X112542542Y-100754508D01*
X112542541Y-100754509D01*
X112419777Y-100776155D01*
X112346324Y-100789107D01*
X112346323Y-100789107D01*
X112147122Y-100784935D01*
X112073572Y-100768764D01*
X111952520Y-100742149D01*
X111769936Y-100662380D01*
X111606324Y-100548667D01*
X111467915Y-100405340D01*
X111467914Y-100405339D01*
X111359980Y-100237858D01*
X111286632Y-100052602D01*
X111250664Y-99856631D01*
X111250664Y-99856628D01*
X111253446Y-99657400D01*
X111291977Y-99476125D01*
X111294871Y-99462508D01*
X111373364Y-99279370D01*
X111485931Y-99114969D01*
X111628291Y-98975560D01*
X111795014Y-98866461D01*
X111979753Y-98791821D01*
X112175472Y-98754486D01*
X112374715Y-98755877D01*
X112374715Y-98755877D01*
G37*
G36*
X138606057Y-96114916D02*
X138928066Y-96181015D01*
X139231099Y-96308398D01*
X139503619Y-96492216D01*
X139735250Y-96725469D01*
X139917157Y-96999262D01*
X140042424Y-97303183D01*
X140106255Y-97625551D01*
X140106255Y-97625559D01*
X140106271Y-97625640D01*
X140101029Y-98001100D01*
X140101010Y-98001183D01*
X140101010Y-98001191D01*
X140028203Y-98321649D01*
X139894500Y-98621951D01*
X139705013Y-98890566D01*
X139466966Y-99117255D01*
X139189421Y-99293390D01*
X138882941Y-99412266D01*
X138559218Y-99469347D01*
X138230573Y-99462463D01*
X137909518Y-99391874D01*
X137608294Y-99260273D01*
X137338364Y-99072666D01*
X137110016Y-98836206D01*
X136931945Y-98559894D01*
X136810936Y-98254258D01*
X136751596Y-97930942D01*
X136756186Y-97602248D01*
X136824530Y-97280717D01*
X136954026Y-96978577D01*
X137139741Y-96707347D01*
X137374605Y-96477351D01*
X137649665Y-96297358D01*
X137954449Y-96174217D01*
X138277345Y-96112621D01*
X138606057Y-96114916D01*
X138606057Y-96114916D01*
G37*
G36*
X105586057Y-96114916D02*
X105908066Y-96181015D01*
X106211099Y-96308398D01*
X106483619Y-96492216D01*
X106715250Y-96725469D01*
X106897157Y-96999262D01*
X107022424Y-97303183D01*
X107086255Y-97625551D01*
X107086255Y-97625559D01*
X107086271Y-97625640D01*
X107081029Y-98001100D01*
X107081010Y-98001183D01*
X107081010Y-98001191D01*
X107008203Y-98321649D01*
X106874500Y-98621951D01*
X106685013Y-98890566D01*
X106446966Y-99117255D01*
X106169421Y-99293390D01*
X105862941Y-99412266D01*
X105539218Y-99469347D01*
X105210573Y-99462463D01*
X104889518Y-99391874D01*
X104588294Y-99260273D01*
X104318364Y-99072666D01*
X104090016Y-98836206D01*
X103911945Y-98559894D01*
X103790936Y-98254258D01*
X103731596Y-97930942D01*
X103736186Y-97602248D01*
X103804530Y-97280717D01*
X103934026Y-96978577D01*
X104119741Y-96707347D01*
X104354605Y-96477351D01*
X104629665Y-96297358D01*
X104934449Y-96174217D01*
X105257345Y-96112621D01*
X105586057Y-96114916D01*
X105586057Y-96114916D01*
G37*
G36*
X130182184Y-96988823D02*
X130189549Y-96988874D01*
X130189553Y-96988874D01*
X130190063Y-96988878D01*
X130345456Y-97006308D01*
X130494503Y-97053589D01*
X130631529Y-97128919D01*
X130751313Y-97229430D01*
X130849293Y-97351292D01*
X130921737Y-97489865D01*
X130965886Y-97639870D01*
X130980057Y-97795593D01*
X130963713Y-97951104D01*
X130917474Y-98100477D01*
X130843102Y-98238025D01*
X130743430Y-98358508D01*
X130622254Y-98457336D01*
X130484191Y-98530746D01*
X130334498Y-98575941D01*
X130178877Y-98591200D01*
X130171123Y-98591200D01*
X130167816Y-98591177D01*
X130160451Y-98591126D01*
X130160447Y-98591126D01*
X130159937Y-98591122D01*
X130004544Y-98573692D01*
X129855497Y-98526411D01*
X129718471Y-98451081D01*
X129598687Y-98350570D01*
X129500707Y-98228708D01*
X129428263Y-98090135D01*
X129384114Y-97940130D01*
X129383278Y-97930939D01*
X129369943Y-97784404D01*
X129386286Y-97628910D01*
X129386287Y-97628896D01*
X129432526Y-97479523D01*
X129506898Y-97341975D01*
X129606570Y-97221492D01*
X129727746Y-97122664D01*
X129865809Y-97049254D01*
X130015502Y-97004059D01*
X130171123Y-96988800D01*
X130178877Y-96988800D01*
X130182184Y-96988823D01*
X130182184Y-96988823D01*
G37*
G36*
X133516200Y-98591200D02*
X131913800Y-98591200D01*
X131913800Y-96988800D01*
X133516200Y-96988800D01*
X133516200Y-98591200D01*
X133516200Y-98591200D01*
G37*
G36*
X116847184Y-96988823D02*
X116854549Y-96988874D01*
X116854553Y-96988874D01*
X116855063Y-96988878D01*
X117010456Y-97006308D01*
X117159503Y-97053589D01*
X117296529Y-97128919D01*
X117416313Y-97229430D01*
X117514293Y-97351292D01*
X117586737Y-97489865D01*
X117630886Y-97639870D01*
X117645057Y-97795593D01*
X117628713Y-97951104D01*
X117582474Y-98100477D01*
X117508102Y-98238025D01*
X117408430Y-98358508D01*
X117287254Y-98457336D01*
X117149191Y-98530746D01*
X116999498Y-98575941D01*
X116843877Y-98591200D01*
X116836123Y-98591200D01*
X116832816Y-98591177D01*
X116825451Y-98591126D01*
X116825447Y-98591126D01*
X116824937Y-98591122D01*
X116669544Y-98573692D01*
X116520497Y-98526411D01*
X116383471Y-98451081D01*
X116263687Y-98350570D01*
X116165707Y-98228708D01*
X116093263Y-98090135D01*
X116049114Y-97940130D01*
X116048278Y-97930939D01*
X116034943Y-97784404D01*
X116051286Y-97628910D01*
X116051287Y-97628896D01*
X116097526Y-97479523D01*
X116171898Y-97341975D01*
X116271570Y-97221492D01*
X116392746Y-97122664D01*
X116530809Y-97049254D01*
X116680502Y-97004059D01*
X116836123Y-96988800D01*
X116843877Y-96988800D01*
X116847184Y-96988823D01*
X116847184Y-96988823D01*
G37*
G36*
X119387184Y-96988823D02*
X119394549Y-96988874D01*
X119394553Y-96988874D01*
X119395063Y-96988878D01*
X119550456Y-97006308D01*
X119699503Y-97053589D01*
X119836529Y-97128919D01*
X119956313Y-97229430D01*
X120054293Y-97351292D01*
X120126737Y-97489865D01*
X120170886Y-97639870D01*
X120185057Y-97795593D01*
X120168713Y-97951104D01*
X120122474Y-98100477D01*
X120048102Y-98238025D01*
X119948430Y-98358508D01*
X119827254Y-98457336D01*
X119689191Y-98530746D01*
X119539498Y-98575941D01*
X119383877Y-98591200D01*
X119376123Y-98591200D01*
X119372816Y-98591177D01*
X119365451Y-98591126D01*
X119365447Y-98591126D01*
X119364937Y-98591122D01*
X119209544Y-98573692D01*
X119060497Y-98526411D01*
X118923471Y-98451081D01*
X118803687Y-98350570D01*
X118705707Y-98228708D01*
X118633263Y-98090135D01*
X118589114Y-97940130D01*
X118588278Y-97930939D01*
X118574943Y-97784404D01*
X118591286Y-97628910D01*
X118591287Y-97628896D01*
X118637526Y-97479523D01*
X118711898Y-97341975D01*
X118811570Y-97221492D01*
X118932746Y-97122664D01*
X119070809Y-97049254D01*
X119220502Y-97004059D01*
X119376123Y-96988800D01*
X119383877Y-96988800D01*
X119387184Y-96988823D01*
X119387184Y-96988823D01*
G37*
G36*
X121927184Y-96988823D02*
X121934549Y-96988874D01*
X121934553Y-96988874D01*
X121935063Y-96988878D01*
X122090456Y-97006308D01*
X122239503Y-97053589D01*
X122376529Y-97128919D01*
X122496313Y-97229430D01*
X122594293Y-97351292D01*
X122666737Y-97489865D01*
X122710886Y-97639870D01*
X122725057Y-97795593D01*
X122708713Y-97951104D01*
X122662474Y-98100477D01*
X122588102Y-98238025D01*
X122488430Y-98358508D01*
X122367254Y-98457336D01*
X122229191Y-98530746D01*
X122079498Y-98575941D01*
X121923877Y-98591200D01*
X121916123Y-98591200D01*
X121912816Y-98591177D01*
X121905451Y-98591126D01*
X121905447Y-98591126D01*
X121904937Y-98591122D01*
X121749544Y-98573692D01*
X121600497Y-98526411D01*
X121463471Y-98451081D01*
X121343687Y-98350570D01*
X121245707Y-98228708D01*
X121173263Y-98090135D01*
X121129114Y-97940130D01*
X121128278Y-97930939D01*
X121114943Y-97784404D01*
X121131286Y-97628910D01*
X121131287Y-97628896D01*
X121177526Y-97479523D01*
X121251898Y-97341975D01*
X121351570Y-97221492D01*
X121472746Y-97122664D01*
X121610809Y-97049254D01*
X121760502Y-97004059D01*
X121916123Y-96988800D01*
X121923877Y-96988800D01*
X121927184Y-96988823D01*
X121927184Y-96988823D01*
G37*
G36*
X125261200Y-98591200D02*
X123658800Y-98591200D01*
X123658800Y-96988800D01*
X125261200Y-96988800D01*
X125261200Y-98591200D01*
X125261200Y-98591200D01*
G37*
G36*
X105145037Y-90594516D02*
X105351783Y-90636955D01*
X105546343Y-90718741D01*
X105721315Y-90836760D01*
X105870033Y-90986521D01*
X105985617Y-91160490D01*
X105986826Y-91162310D01*
X106004642Y-91205536D01*
X106067253Y-91357441D01*
X106108229Y-91564384D01*
X106108229Y-91564387D01*
X106108246Y-91564473D01*
X106104880Y-91805536D01*
X106104861Y-91805619D01*
X106104861Y-91805627D01*
X106058123Y-92011343D01*
X105972279Y-92204152D01*
X105850619Y-92376617D01*
X105697782Y-92522161D01*
X105519585Y-92635248D01*
X105322809Y-92711573D01*
X105114965Y-92748221D01*
X104903959Y-92743801D01*
X104697825Y-92698480D01*
X104504426Y-92613985D01*
X104331117Y-92493533D01*
X104184507Y-92341714D01*
X104070177Y-92164308D01*
X103992483Y-91968076D01*
X103954384Y-91760493D01*
X103957332Y-91549452D01*
X104001210Y-91343017D01*
X104084354Y-91149028D01*
X104203592Y-90974886D01*
X104354387Y-90827217D01*
X104530988Y-90711653D01*
X104726674Y-90632590D01*
X104933988Y-90593043D01*
X105145037Y-90594516D01*
X105145037Y-90594516D01*
G37*
G36*
X110095037Y-89994516D02*
X110301783Y-90036955D01*
X110496343Y-90118741D01*
X110671315Y-90236760D01*
X110820033Y-90386521D01*
X110936825Y-90562308D01*
X110936826Y-90562310D01*
X110950100Y-90594516D01*
X111017253Y-90757441D01*
X111058229Y-90964384D01*
X111058229Y-90964387D01*
X111058246Y-90964473D01*
X111054880Y-91205536D01*
X111054861Y-91205619D01*
X111054861Y-91205627D01*
X111008123Y-91411343D01*
X110922279Y-91604152D01*
X110800619Y-91776617D01*
X110647782Y-91922161D01*
X110469585Y-92035248D01*
X110272809Y-92111573D01*
X110064965Y-92148221D01*
X109853959Y-92143801D01*
X109647825Y-92098480D01*
X109454426Y-92013985D01*
X109281117Y-91893533D01*
X109134507Y-91741714D01*
X109020177Y-91564308D01*
X108942483Y-91368076D01*
X108904384Y-91160493D01*
X108907332Y-90949452D01*
X108951210Y-90743017D01*
X109034354Y-90549028D01*
X109153592Y-90374886D01*
X109304387Y-90227217D01*
X109480988Y-90111653D01*
X109676674Y-90032590D01*
X109883988Y-89993043D01*
X110095037Y-89994516D01*
X110095037Y-89994516D01*
G37*
G36*
X130182184Y-89826023D02*
X130189549Y-89826074D01*
X130189553Y-89826074D01*
X130190063Y-89826078D01*
X130345456Y-89843508D01*
X130494503Y-89890789D01*
X130631529Y-89966119D01*
X130751313Y-90066630D01*
X130849293Y-90188492D01*
X130921737Y-90327065D01*
X130965886Y-90477070D01*
X130980057Y-90632793D01*
X130963713Y-90788304D01*
X130917474Y-90937677D01*
X130843102Y-91075225D01*
X130743430Y-91195708D01*
X130622254Y-91294536D01*
X130484191Y-91367946D01*
X130334498Y-91413141D01*
X130178877Y-91428400D01*
X130171123Y-91428400D01*
X130167816Y-91428377D01*
X130160451Y-91428326D01*
X130160447Y-91428326D01*
X130159937Y-91428322D01*
X130004544Y-91410892D01*
X129855497Y-91363611D01*
X129718471Y-91288281D01*
X129598687Y-91187770D01*
X129500707Y-91065908D01*
X129428263Y-90927335D01*
X129384114Y-90777330D01*
X129369943Y-90621607D01*
X129386287Y-90466096D01*
X129432526Y-90316723D01*
X129506898Y-90179175D01*
X129606570Y-90058692D01*
X129727746Y-89959864D01*
X129865809Y-89886454D01*
X130015502Y-89841259D01*
X130171123Y-89826000D01*
X130178877Y-89826000D01*
X130182184Y-89826023D01*
X130182184Y-89826023D01*
G37*
G36*
X116847184Y-89826023D02*
X116854549Y-89826074D01*
X116854553Y-89826074D01*
X116855063Y-89826078D01*
X117010456Y-89843508D01*
X117159503Y-89890789D01*
X117296529Y-89966119D01*
X117416313Y-90066630D01*
X117514293Y-90188492D01*
X117586737Y-90327065D01*
X117630886Y-90477070D01*
X117645057Y-90632793D01*
X117628713Y-90788304D01*
X117582474Y-90937677D01*
X117508102Y-91075225D01*
X117408430Y-91195708D01*
X117287254Y-91294536D01*
X117149191Y-91367946D01*
X116999498Y-91413141D01*
X116843877Y-91428400D01*
X116836123Y-91428400D01*
X116832816Y-91428377D01*
X116825451Y-91428326D01*
X116825447Y-91428326D01*
X116824937Y-91428322D01*
X116669544Y-91410892D01*
X116520497Y-91363611D01*
X116383471Y-91288281D01*
X116263687Y-91187770D01*
X116165707Y-91065908D01*
X116093263Y-90927335D01*
X116049114Y-90777330D01*
X116034943Y-90621607D01*
X116051287Y-90466096D01*
X116097526Y-90316723D01*
X116171898Y-90179175D01*
X116271570Y-90058692D01*
X116392746Y-89959864D01*
X116530809Y-89886454D01*
X116680502Y-89841259D01*
X116836123Y-89826000D01*
X116843877Y-89826000D01*
X116847184Y-89826023D01*
X116847184Y-89826023D01*
G37*
G36*
X119387184Y-89826023D02*
X119394549Y-89826074D01*
X119394553Y-89826074D01*
X119395063Y-89826078D01*
X119550456Y-89843508D01*
X119699503Y-89890789D01*
X119836529Y-89966119D01*
X119956313Y-90066630D01*
X120054293Y-90188492D01*
X120126737Y-90327065D01*
X120170886Y-90477070D01*
X120185057Y-90632793D01*
X120168713Y-90788304D01*
X120122474Y-90937677D01*
X120048102Y-91075225D01*
X119948430Y-91195708D01*
X119827254Y-91294536D01*
X119689191Y-91367946D01*
X119539498Y-91413141D01*
X119383877Y-91428400D01*
X119376123Y-91428400D01*
X119372816Y-91428377D01*
X119365451Y-91428326D01*
X119365447Y-91428326D01*
X119364937Y-91428322D01*
X119209544Y-91410892D01*
X119060497Y-91363611D01*
X118923471Y-91288281D01*
X118803687Y-91187770D01*
X118705707Y-91065908D01*
X118633263Y-90927335D01*
X118589114Y-90777330D01*
X118574943Y-90621607D01*
X118591287Y-90466096D01*
X118637526Y-90316723D01*
X118711898Y-90179175D01*
X118811570Y-90058692D01*
X118932746Y-89959864D01*
X119070809Y-89886454D01*
X119220502Y-89841259D01*
X119376123Y-89826000D01*
X119383877Y-89826000D01*
X119387184Y-89826023D01*
X119387184Y-89826023D01*
G37*
G36*
X121927184Y-89826023D02*
X121934549Y-89826074D01*
X121934553Y-89826074D01*
X121935063Y-89826078D01*
X122090456Y-89843508D01*
X122239503Y-89890789D01*
X122376529Y-89966119D01*
X122496313Y-90066630D01*
X122594293Y-90188492D01*
X122666737Y-90327065D01*
X122710886Y-90477070D01*
X122725057Y-90632793D01*
X122708713Y-90788304D01*
X122662474Y-90937677D01*
X122588102Y-91075225D01*
X122488430Y-91195708D01*
X122367254Y-91294536D01*
X122229191Y-91367946D01*
X122079498Y-91413141D01*
X121923877Y-91428400D01*
X121916123Y-91428400D01*
X121912816Y-91428377D01*
X121905451Y-91428326D01*
X121905447Y-91428326D01*
X121904937Y-91428322D01*
X121749544Y-91410892D01*
X121600497Y-91363611D01*
X121463471Y-91288281D01*
X121343687Y-91187770D01*
X121245707Y-91065908D01*
X121173263Y-90927335D01*
X121129114Y-90777330D01*
X121114943Y-90621607D01*
X121131287Y-90466096D01*
X121177526Y-90316723D01*
X121251898Y-90179175D01*
X121351570Y-90058692D01*
X121472746Y-89959864D01*
X121610809Y-89886454D01*
X121760502Y-89841259D01*
X121916123Y-89826000D01*
X121923877Y-89826000D01*
X121927184Y-89826023D01*
X121927184Y-89826023D01*
G37*
G36*
X125261200Y-91428400D02*
X123658800Y-91428400D01*
X123658800Y-89826000D01*
X125261200Y-89826000D01*
X125261200Y-91428400D01*
X125261200Y-91428400D01*
G37*
G36*
X133516200Y-91428400D02*
X131913800Y-91428400D01*
X131913800Y-89826000D01*
X133516200Y-89826000D01*
X133516200Y-91428400D01*
X133516200Y-91428400D01*
G37*
G36*
X111908200Y-88796200D02*
X109855800Y-88796200D01*
X109855800Y-88343800D01*
X111908200Y-88343800D01*
X111908200Y-88796200D01*
X111908200Y-88796200D01*
G37*
G36*
X111908200Y-88296200D02*
X109855800Y-88296200D01*
X109855800Y-87843800D01*
X111908200Y-87843800D01*
X111908200Y-88296200D01*
X111908200Y-88296200D01*
G37*
G36*
X111908200Y-87796200D02*
X109855800Y-87796200D01*
X109855800Y-87343800D01*
X111908200Y-87343800D01*
X111908200Y-87796200D01*
X111908200Y-87796200D01*
G37*
G36*
X111908200Y-87296200D02*
X109855800Y-87296200D01*
X109855800Y-86843800D01*
X111908200Y-86843800D01*
X111908200Y-87296200D01*
X111908200Y-87296200D01*
G37*
G36*
X111908200Y-86796200D02*
X109855800Y-86796200D01*
X109855800Y-86343800D01*
X111908200Y-86343800D01*
X111908200Y-86796200D01*
X111908200Y-86796200D01*
G37*
G36*
X140517915Y-84608077D02*
X140713093Y-84648141D01*
X140713096Y-84648142D01*
X140713095Y-84648142D01*
X140896772Y-84725353D01*
X141061956Y-84836770D01*
X141132650Y-84907960D01*
X141202353Y-84978151D01*
X141312615Y-85144109D01*
X141388543Y-85328323D01*
X141427244Y-85523776D01*
X141424066Y-85751355D01*
X141424046Y-85751443D01*
X141424046Y-85751445D01*
X141403063Y-85843800D01*
X141379923Y-85945651D01*
X141329990Y-86057800D01*
X141298882Y-86127672D01*
X141298881Y-86127673D01*
X141184028Y-86290488D01*
X141039739Y-86427893D01*
X140871508Y-86534655D01*
X140685745Y-86606708D01*
X140685742Y-86606708D01*
X140685741Y-86606709D01*
X140562977Y-86628355D01*
X140489524Y-86641307D01*
X140489523Y-86641307D01*
X140290322Y-86637135D01*
X140216772Y-86620964D01*
X140095720Y-86594349D01*
X139913136Y-86514580D01*
X139749524Y-86400867D01*
X139611115Y-86257540D01*
X139611114Y-86257539D01*
X139503180Y-86090058D01*
X139429832Y-85904802D01*
X139393864Y-85708831D01*
X139393864Y-85708828D01*
X139396646Y-85509600D01*
X139396647Y-85509595D01*
X139438071Y-85314708D01*
X139516564Y-85131570D01*
X139629131Y-84967169D01*
X139771491Y-84827760D01*
X139938214Y-84718661D01*
X140122953Y-84644021D01*
X140318672Y-84606686D01*
X140517915Y-84608077D01*
X140517915Y-84608077D01*
G37*
G36*
X111908200Y-86296200D02*
X109855800Y-86296200D01*
X109855800Y-85843800D01*
X111908200Y-85843800D01*
X111908200Y-86296200D01*
X111908200Y-86296200D01*
G37*
G36*
X111908200Y-85796200D02*
X109855800Y-85796200D01*
X109855800Y-85343800D01*
X111908200Y-85343800D01*
X111908200Y-85796200D01*
X111908200Y-85796200D01*
G37*
G36*
X111908200Y-85296200D02*
X109855800Y-85296200D01*
X109855800Y-84843800D01*
X111908200Y-84843800D01*
X111908200Y-85296200D01*
X111908200Y-85296200D01*
G37*
G36*
X111908200Y-84796200D02*
X109855800Y-84796200D01*
X109855800Y-84343800D01*
X111908200Y-84343800D01*
X111908200Y-84796200D01*
X111908200Y-84796200D01*
G37*
G36*
X111908200Y-84296200D02*
X109855800Y-84296200D01*
X109855800Y-83843800D01*
X111908200Y-83843800D01*
X111908200Y-84296200D01*
X111908200Y-84296200D01*
G37*
G36*
X125261200Y-84265600D02*
X123658800Y-84265600D01*
X123658800Y-82663200D01*
X125261200Y-82663200D01*
X125261200Y-84265600D01*
X125261200Y-84265600D01*
G37*
G36*
X121927184Y-82663223D02*
X121934549Y-82663274D01*
X121934553Y-82663274D01*
X121935063Y-82663278D01*
X122090456Y-82680708D01*
X122239503Y-82727989D01*
X122376529Y-82803319D01*
X122496313Y-82903830D01*
X122594293Y-83025692D01*
X122666737Y-83164265D01*
X122710886Y-83314270D01*
X122725057Y-83469993D01*
X122708713Y-83625504D01*
X122662474Y-83774877D01*
X122588102Y-83912425D01*
X122488430Y-84032908D01*
X122367254Y-84131736D01*
X122229191Y-84205146D01*
X122079498Y-84250341D01*
X121923877Y-84265600D01*
X121916123Y-84265600D01*
X121912816Y-84265577D01*
X121905451Y-84265526D01*
X121905447Y-84265526D01*
X121904937Y-84265522D01*
X121749544Y-84248092D01*
X121600497Y-84200811D01*
X121463471Y-84125481D01*
X121343687Y-84024970D01*
X121245707Y-83903108D01*
X121173263Y-83764535D01*
X121129114Y-83614530D01*
X121114943Y-83458807D01*
X121131287Y-83303296D01*
X121177526Y-83153923D01*
X121251898Y-83016375D01*
X121351570Y-82895892D01*
X121472746Y-82797064D01*
X121610809Y-82723654D01*
X121760502Y-82678459D01*
X121916123Y-82663200D01*
X121923877Y-82663200D01*
X121927184Y-82663223D01*
X121927184Y-82663223D01*
G37*
G36*
X119387184Y-82663223D02*
X119394549Y-82663274D01*
X119394553Y-82663274D01*
X119395063Y-82663278D01*
X119550456Y-82680708D01*
X119699503Y-82727989D01*
X119836529Y-82803319D01*
X119956313Y-82903830D01*
X120054293Y-83025692D01*
X120126737Y-83164265D01*
X120170886Y-83314270D01*
X120185057Y-83469993D01*
X120168713Y-83625504D01*
X120122474Y-83774877D01*
X120048102Y-83912425D01*
X119948430Y-84032908D01*
X119827254Y-84131736D01*
X119689191Y-84205146D01*
X119539498Y-84250341D01*
X119383877Y-84265600D01*
X119376123Y-84265600D01*
X119372816Y-84265577D01*
X119365451Y-84265526D01*
X119365447Y-84265526D01*
X119364937Y-84265522D01*
X119209544Y-84248092D01*
X119060497Y-84200811D01*
X118923471Y-84125481D01*
X118803687Y-84024970D01*
X118705707Y-83903108D01*
X118633263Y-83764535D01*
X118589114Y-83614530D01*
X118574943Y-83458807D01*
X118591287Y-83303296D01*
X118637526Y-83153923D01*
X118711898Y-83016375D01*
X118811570Y-82895892D01*
X118932746Y-82797064D01*
X119070809Y-82723654D01*
X119220502Y-82678459D01*
X119376123Y-82663200D01*
X119383877Y-82663200D01*
X119387184Y-82663223D01*
X119387184Y-82663223D01*
G37*
G36*
X116847184Y-82663223D02*
X116854549Y-82663274D01*
X116854553Y-82663274D01*
X116855063Y-82663278D01*
X117010456Y-82680708D01*
X117159503Y-82727989D01*
X117296529Y-82803319D01*
X117416313Y-82903830D01*
X117514293Y-83025692D01*
X117586737Y-83164265D01*
X117630886Y-83314270D01*
X117645057Y-83469993D01*
X117628713Y-83625504D01*
X117582474Y-83774877D01*
X117508102Y-83912425D01*
X117408430Y-84032908D01*
X117287254Y-84131736D01*
X117149191Y-84205146D01*
X116999498Y-84250341D01*
X116843877Y-84265600D01*
X116836123Y-84265600D01*
X116832816Y-84265577D01*
X116825451Y-84265526D01*
X116825447Y-84265526D01*
X116824937Y-84265522D01*
X116669544Y-84248092D01*
X116520497Y-84200811D01*
X116383471Y-84125481D01*
X116263687Y-84024970D01*
X116165707Y-83903108D01*
X116093263Y-83764535D01*
X116049114Y-83614530D01*
X116034943Y-83458807D01*
X116051287Y-83303296D01*
X116097526Y-83153923D01*
X116171898Y-83016375D01*
X116271570Y-82895892D01*
X116392746Y-82797064D01*
X116530809Y-82723654D01*
X116680502Y-82678459D01*
X116836123Y-82663200D01*
X116843877Y-82663200D01*
X116847184Y-82663223D01*
X116847184Y-82663223D01*
G37*
G36*
X130182184Y-82663223D02*
X130189549Y-82663274D01*
X130189553Y-82663274D01*
X130190063Y-82663278D01*
X130345456Y-82680708D01*
X130494503Y-82727989D01*
X130631529Y-82803319D01*
X130751313Y-82903830D01*
X130849293Y-83025692D01*
X130921737Y-83164265D01*
X130965886Y-83314270D01*
X130980057Y-83469993D01*
X130963713Y-83625504D01*
X130917474Y-83774877D01*
X130843102Y-83912425D01*
X130743430Y-84032908D01*
X130622254Y-84131736D01*
X130484191Y-84205146D01*
X130334498Y-84250341D01*
X130178877Y-84265600D01*
X130171123Y-84265600D01*
X130167816Y-84265577D01*
X130160451Y-84265526D01*
X130160447Y-84265526D01*
X130159937Y-84265522D01*
X130004544Y-84248092D01*
X129855497Y-84200811D01*
X129718471Y-84125481D01*
X129598687Y-84024970D01*
X129500707Y-83903108D01*
X129428263Y-83764535D01*
X129384114Y-83614530D01*
X129369943Y-83458807D01*
X129386287Y-83303296D01*
X129432526Y-83153923D01*
X129506898Y-83016375D01*
X129606570Y-82895892D01*
X129727746Y-82797064D01*
X129865809Y-82723654D01*
X130015502Y-82678459D01*
X130171123Y-82663200D01*
X130178877Y-82663200D01*
X130182184Y-82663223D01*
X130182184Y-82663223D01*
G37*
G36*
X133516200Y-84265600D02*
X131913800Y-84265600D01*
X131913800Y-82663200D01*
X133516200Y-82663200D01*
X133516200Y-84265600D01*
X133516200Y-84265600D01*
G37*
G36*
X111908200Y-83796200D02*
X109855800Y-83796200D01*
X109855800Y-83343800D01*
X111908200Y-83343800D01*
X111908200Y-83796200D01*
X111908200Y-83796200D01*
G37*
G36*
X111908200Y-83296200D02*
X109855800Y-83296200D01*
X109855800Y-82843800D01*
X111908200Y-82843800D01*
X111908200Y-83296200D01*
X111908200Y-83296200D01*
G37*
G36*
X111908200Y-82796200D02*
X109855800Y-82796200D01*
X109855800Y-82343800D01*
X111908200Y-82343800D01*
X111908200Y-82796200D01*
X111908200Y-82796200D01*
G37*
G36*
X111908200Y-82296200D02*
X109855800Y-82296200D01*
X109855800Y-81843800D01*
X111908200Y-81843800D01*
X111908200Y-82296200D01*
X111908200Y-82296200D01*
G37*
G36*
X111908200Y-81796200D02*
X109855800Y-81796200D01*
X109855800Y-81343800D01*
X111908200Y-81343800D01*
X111908200Y-81796200D01*
X111908200Y-81796200D01*
G37*
G36*
X111908200Y-81296200D02*
X109855800Y-81296200D01*
X109855800Y-80843800D01*
X111908200Y-80843800D01*
X111908200Y-81296200D01*
X111908200Y-81296200D01*
G37*
G36*
X111908200Y-80796200D02*
X109855800Y-80796200D01*
X109855800Y-80343800D01*
X111908200Y-80343800D01*
X111908200Y-80796200D01*
X111908200Y-80796200D01*
G37*
G36*
X111908200Y-80296200D02*
X109855800Y-80296200D01*
X109855800Y-79843800D01*
X111908200Y-79843800D01*
X111908200Y-80296200D01*
X111908200Y-80296200D01*
G37*
G36*
X111908200Y-79796200D02*
X109855800Y-79796200D01*
X109855800Y-79343800D01*
X111908200Y-79343800D01*
X111908200Y-79796200D01*
X111908200Y-79796200D01*
G37*
G36*
X115746057Y-74524916D02*
X116068066Y-74591015D01*
X116371099Y-74718398D01*
X116643619Y-74902216D01*
X116875250Y-75135469D01*
X117057157Y-75409262D01*
X117182424Y-75713183D01*
X117246255Y-76035551D01*
X117246255Y-76035559D01*
X117246271Y-76035640D01*
X117241029Y-76411100D01*
X117241010Y-76411183D01*
X117241010Y-76411191D01*
X117168203Y-76731649D01*
X117034500Y-77031951D01*
X116845013Y-77300566D01*
X116606966Y-77527255D01*
X116329421Y-77703390D01*
X116022941Y-77822266D01*
X115699218Y-77879347D01*
X115370573Y-77872463D01*
X115049518Y-77801874D01*
X114748294Y-77670273D01*
X114523426Y-77513985D01*
X114478365Y-77482667D01*
X114419934Y-77422160D01*
X114250016Y-77246206D01*
X114071945Y-76969894D01*
X113950936Y-76664258D01*
X113891596Y-76340942D01*
X113896186Y-76012248D01*
X113964530Y-75690717D01*
X114094026Y-75388577D01*
X114279741Y-75117347D01*
X114514605Y-74887351D01*
X114789665Y-74707358D01*
X115094449Y-74584217D01*
X115417345Y-74522621D01*
X115746057Y-74524916D01*
X115746057Y-74524916D01*
G37*
G36*
X138606057Y-74524916D02*
X138928066Y-74591015D01*
X139231099Y-74718398D01*
X139503619Y-74902216D01*
X139735250Y-75135469D01*
X139917157Y-75409262D01*
X140042424Y-75713183D01*
X140106255Y-76035551D01*
X140106255Y-76035559D01*
X140106271Y-76035640D01*
X140101029Y-76411100D01*
X140101010Y-76411183D01*
X140101010Y-76411191D01*
X140028203Y-76731649D01*
X139894500Y-77031951D01*
X139705013Y-77300566D01*
X139466966Y-77527255D01*
X139189421Y-77703390D01*
X138882941Y-77822266D01*
X138559218Y-77879347D01*
X138230573Y-77872463D01*
X137909518Y-77801874D01*
X137608294Y-77670273D01*
X137383426Y-77513985D01*
X137338365Y-77482667D01*
X137279934Y-77422160D01*
X137110016Y-77246206D01*
X136931945Y-76969894D01*
X136810936Y-76664258D01*
X136751596Y-76340942D01*
X136756186Y-76012248D01*
X136824530Y-75690717D01*
X136954026Y-75388577D01*
X137139741Y-75117347D01*
X137374605Y-74887351D01*
X137649665Y-74707358D01*
X137954449Y-74584217D01*
X138277345Y-74522621D01*
X138606057Y-74524916D01*
X138606057Y-74524916D01*
G37*
G36*
X110095037Y-75494516D02*
X110301783Y-75536955D01*
X110496343Y-75618741D01*
X110671315Y-75736760D01*
X110820033Y-75886521D01*
X110936825Y-76062308D01*
X111017253Y-76257441D01*
X111058229Y-76464384D01*
X111058229Y-76464387D01*
X111058246Y-76464473D01*
X111054880Y-76705536D01*
X111054861Y-76705619D01*
X111054861Y-76705627D01*
X111008123Y-76911343D01*
X110922279Y-77104152D01*
X110800619Y-77276617D01*
X110647782Y-77422161D01*
X110469585Y-77535248D01*
X110272809Y-77611573D01*
X110064965Y-77648221D01*
X109853959Y-77643801D01*
X109647825Y-77598480D01*
X109454426Y-77513985D01*
X109281117Y-77393533D01*
X109134507Y-77241714D01*
X109020177Y-77064308D01*
X108942483Y-76868076D01*
X108904384Y-76660493D01*
X108907332Y-76449452D01*
X108951210Y-76243017D01*
X109034354Y-76049028D01*
X109153592Y-75874886D01*
X109304387Y-75727217D01*
X109480988Y-75611653D01*
X109676674Y-75532590D01*
X109883988Y-75493043D01*
X110095037Y-75494516D01*
X110095037Y-75494516D01*
G37*
G36*
X105145037Y-74894516D02*
X105351783Y-74936955D01*
X105546343Y-75018741D01*
X105721315Y-75136760D01*
X105870033Y-75286521D01*
X105986825Y-75462308D01*
X105986826Y-75462310D01*
X106000100Y-75494516D01*
X106067253Y-75657441D01*
X106108229Y-75864384D01*
X106108229Y-75864387D01*
X106108246Y-75864473D01*
X106104880Y-76105536D01*
X106104861Y-76105619D01*
X106104861Y-76105627D01*
X106058123Y-76311343D01*
X105972279Y-76504152D01*
X105850619Y-76676617D01*
X105697782Y-76822161D01*
X105519585Y-76935248D01*
X105322809Y-77011573D01*
X105114965Y-77048221D01*
X104903959Y-77043801D01*
X104697825Y-76998480D01*
X104504426Y-76913985D01*
X104331117Y-76793533D01*
X104184507Y-76641714D01*
X104070177Y-76464308D01*
X103992483Y-76268076D01*
X103954384Y-76060493D01*
X103957332Y-75849452D01*
X104001210Y-75643017D01*
X104084354Y-75449028D01*
X104203592Y-75274886D01*
X104354387Y-75127217D01*
X104530988Y-75011653D01*
X104726674Y-74932590D01*
X104933988Y-74893043D01*
X105145037Y-74894516D01*
X105145037Y-74894516D01*
G37*
G36*
X139866200Y-70651200D02*
X138263800Y-70651200D01*
X138263800Y-69048800D01*
X139866200Y-69048800D01*
X139866200Y-70651200D01*
X139866200Y-70651200D01*
G37*
G36*
X139072184Y-66508823D02*
X139079549Y-66508874D01*
X139079553Y-66508874D01*
X139080063Y-66508878D01*
X139235456Y-66526308D01*
X139384503Y-66573589D01*
X139521529Y-66648919D01*
X139641313Y-66749430D01*
X139739293Y-66871292D01*
X139811737Y-67009865D01*
X139855886Y-67159870D01*
X139870057Y-67315593D01*
X139853713Y-67471104D01*
X139807474Y-67620477D01*
X139733102Y-67758025D01*
X139633430Y-67878508D01*
X139512254Y-67977336D01*
X139374191Y-68050746D01*
X139224498Y-68095941D01*
X139068877Y-68111200D01*
X139061123Y-68111200D01*
X139057816Y-68111177D01*
X139050451Y-68111126D01*
X139050447Y-68111126D01*
X139049937Y-68111122D01*
X138894544Y-68093692D01*
X138745497Y-68046411D01*
X138608471Y-67971081D01*
X138488687Y-67870570D01*
X138390707Y-67748708D01*
X138318263Y-67610135D01*
X138274114Y-67460130D01*
X138259943Y-67304407D01*
X138276287Y-67148896D01*
X138322526Y-66999523D01*
X138396898Y-66861975D01*
X138496570Y-66741492D01*
X138617746Y-66642664D01*
X138755809Y-66569254D01*
X138905502Y-66524059D01*
X139061123Y-66508800D01*
X139068877Y-66508800D01*
X139072184Y-66508823D01*
X139072184Y-66508823D01*
G37*
G36*
X139072184Y-63968823D02*
X139079549Y-63968874D01*
X139079553Y-63968874D01*
X139080063Y-63968878D01*
X139235456Y-63986308D01*
X139384503Y-64033589D01*
X139521529Y-64108919D01*
X139641313Y-64209430D01*
X139739293Y-64331292D01*
X139811737Y-64469865D01*
X139855886Y-64619870D01*
X139870057Y-64775593D01*
X139853713Y-64931104D01*
X139807474Y-65080477D01*
X139733102Y-65218025D01*
X139633430Y-65338508D01*
X139512254Y-65437336D01*
X139374191Y-65510746D01*
X139224498Y-65555941D01*
X139068877Y-65571200D01*
X139061123Y-65571200D01*
X139057816Y-65571177D01*
X139050451Y-65571126D01*
X139050447Y-65571126D01*
X139049937Y-65571122D01*
X138894544Y-65553692D01*
X138745497Y-65506411D01*
X138608471Y-65431081D01*
X138488687Y-65330570D01*
X138390707Y-65208708D01*
X138318263Y-65070135D01*
X138274114Y-64920130D01*
X138259943Y-64764407D01*
X138276287Y-64608896D01*
X138322526Y-64459523D01*
X138396898Y-64321975D01*
X138496570Y-64201492D01*
X138617746Y-64102664D01*
X138755809Y-64029254D01*
X138905502Y-63984059D01*
X139061123Y-63968800D01*
X139068877Y-63968800D01*
X139072184Y-63968823D01*
X139072184Y-63968823D01*
G37*
G36*
X102976715Y-62484677D02*
X103171893Y-62524741D01*
X103171896Y-62524742D01*
X103171895Y-62524742D01*
X103355572Y-62601953D01*
X103520756Y-62713370D01*
X103591450Y-62784560D01*
X103661153Y-62854751D01*
X103771415Y-63020709D01*
X103847343Y-63204923D01*
X103886044Y-63400376D01*
X103882866Y-63627955D01*
X103838723Y-63822251D01*
X103788790Y-63934400D01*
X103757682Y-64004272D01*
X103757681Y-64004273D01*
X103642828Y-64167088D01*
X103498539Y-64304493D01*
X103330308Y-64411255D01*
X103144545Y-64483308D01*
X103144542Y-64483308D01*
X103144541Y-64483309D01*
X103021777Y-64504955D01*
X102948324Y-64517907D01*
X102948323Y-64517907D01*
X102749122Y-64513735D01*
X102675572Y-64497564D01*
X102554520Y-64470949D01*
X102371936Y-64391180D01*
X102208324Y-64277467D01*
X102069915Y-64134140D01*
X102002357Y-64029311D01*
X101961980Y-63966658D01*
X101888632Y-63781402D01*
X101852664Y-63585431D01*
X101852664Y-63585428D01*
X101855446Y-63386200D01*
X101893977Y-63204925D01*
X101896871Y-63191308D01*
X101975364Y-63008170D01*
X102087931Y-62843769D01*
X102230291Y-62704360D01*
X102397014Y-62595261D01*
X102581753Y-62520621D01*
X102777472Y-62483286D01*
X102976715Y-62484677D01*
X102976715Y-62484677D01*
G37*
M02*
