G04 #@! TF.FileFunction,Copper,L2,Bot,Signal*
%FSLAX46Y46*%
G04 Gerber Fmt 4.6, Leading zero omitted, Abs format (unit mm)*
G04 Created by KiCad (PCBNEW 4.0.2-stable) date Monday, September 10, 2018 'AMt' 08:27:29 AM*
%MOMM*%
G01*
G04 APERTURE LIST*
%ADD10C,0.050000*%
%ADD11C,2.000000*%
%ADD12R,1.450000X1.450000*%
%ADD13O,1.450000X1.450000*%
%ADD14C,1.016000*%
%ADD15C,0.600000*%
%ADD16C,0.250000*%
%ADD17C,0.254000*%
G04 APERTURE END LIST*
D10*
D11*
X105032000Y-75970000D03*
X105032000Y-91670000D03*
X109982000Y-76570000D03*
X109982000Y-91070000D03*
D12*
X139065000Y-69850000D03*
D13*
X139065000Y-67310000D03*
X139065000Y-64770000D03*
D12*
X124460000Y-83464400D03*
D13*
X121920000Y-83464400D03*
X119380000Y-83464400D03*
X116840000Y-83464400D03*
D12*
X124460000Y-90627200D03*
D13*
X121920000Y-90627200D03*
X119380000Y-90627200D03*
X116840000Y-90627200D03*
D12*
X124460000Y-97790000D03*
D13*
X121920000Y-97790000D03*
X119380000Y-97790000D03*
X116840000Y-97790000D03*
D12*
X132715000Y-83464400D03*
D13*
X130175000Y-83464400D03*
D12*
X132715000Y-90627200D03*
D13*
X130175000Y-90627200D03*
D12*
X132715000Y-97790000D03*
D13*
X130175000Y-97790000D03*
D14*
X127317500Y-83629500D03*
X127317500Y-85852000D03*
X127317500Y-90678000D03*
X127317500Y-93091000D03*
X127317500Y-97917000D03*
X127317500Y-100203000D03*
X135572500Y-83566000D03*
X135699500Y-90741500D03*
X114300000Y-81280000D03*
X130175000Y-79375000D03*
X135204200Y-71348600D03*
X107645200Y-74574400D03*
X132613400Y-70485000D03*
X135204200Y-69316600D03*
D15*
X108940600Y-83566000D03*
X108940600Y-86563200D03*
X108940600Y-85039200D03*
X108940600Y-80264000D03*
X108940600Y-81076800D03*
X133985000Y-69545200D03*
X133985000Y-70485000D03*
X134003655Y-71350243D03*
X116840000Y-87249000D03*
X112953800Y-79349600D03*
X112953800Y-80060800D03*
D16*
X105032000Y-75970000D02*
X107569000Y-75970000D01*
X107569000Y-75970000D02*
X109382000Y-75970000D01*
X107645200Y-74574400D02*
X107645200Y-75893800D01*
X107645200Y-75893800D02*
X107569000Y-75970000D01*
X130175000Y-81280000D02*
X130175000Y-79375000D01*
X128905000Y-90627200D02*
X128905000Y-96520000D01*
X128905000Y-96520000D02*
X130175000Y-97790000D01*
X130175000Y-90627200D02*
X129149696Y-90627200D01*
X129149696Y-90627200D02*
X128905000Y-90627200D01*
X130175000Y-83464400D02*
X128905000Y-84734400D01*
X128905000Y-84734400D02*
X128905000Y-86995000D01*
X130175000Y-81280000D02*
X130175000Y-83464400D01*
X109982000Y-91070000D02*
X110981999Y-92069999D01*
X118655001Y-91352199D02*
X119380000Y-90627200D01*
X110981999Y-92069999D02*
X117937201Y-92069999D01*
X117937201Y-92069999D02*
X118655001Y-91352199D01*
X119380000Y-86995000D02*
X119380000Y-90627200D01*
X119380000Y-83464400D02*
X119380000Y-86995000D01*
X119380000Y-86995000D02*
X128905000Y-86995000D01*
X128905000Y-86995000D02*
X128905000Y-90627200D01*
X119380000Y-90627200D02*
X119380000Y-91652504D01*
X119380000Y-91652504D02*
X119380000Y-97790000D01*
X108940600Y-81076800D02*
X108940600Y-83566000D01*
X108940600Y-83566000D02*
X108940600Y-85039200D01*
X108940600Y-85039200D02*
X108940600Y-86563200D01*
X108940600Y-86563200D02*
X108940600Y-90028600D01*
X105032000Y-91670000D02*
X109382000Y-91670000D01*
X109382000Y-91670000D02*
X109982000Y-91070000D01*
X108940600Y-90028600D02*
X109982000Y-91070000D01*
X109382000Y-75970000D02*
X109982000Y-76570000D01*
X108940600Y-81076800D02*
X108940600Y-80264000D01*
X108940600Y-80264000D02*
X108940600Y-79878600D01*
X108940600Y-79878600D02*
X105032000Y-75970000D01*
X133985000Y-69545200D02*
X134975600Y-69545200D01*
X134975600Y-69545200D02*
X135204200Y-69316600D01*
X133985000Y-70485000D02*
X132613400Y-70485000D01*
X134003655Y-71350243D02*
X135202557Y-71350243D01*
X135202557Y-71350243D02*
X135204200Y-71348600D01*
X133985000Y-71368898D02*
X134003655Y-71350243D01*
X124460000Y-97790000D02*
X127190500Y-97790000D01*
X127190500Y-97790000D02*
X127317500Y-97917000D01*
X127317500Y-100203000D02*
X126809501Y-99695001D01*
X126809501Y-99695001D02*
X123825001Y-99695001D01*
X123825001Y-99695001D02*
X122644999Y-98514999D01*
X122644999Y-98514999D02*
X121920000Y-97790000D01*
X124460000Y-90627200D02*
X127266700Y-90627200D01*
X127266700Y-90627200D02*
X127317500Y-90678000D01*
X127317500Y-93091000D02*
X124383800Y-93091000D01*
X124383800Y-93091000D02*
X121920000Y-90627200D01*
X124460000Y-83464400D02*
X127152400Y-83464400D01*
X127152400Y-83464400D02*
X127317500Y-83629500D01*
X127317500Y-85852000D02*
X124307600Y-85852000D01*
X124307600Y-85852000D02*
X121920000Y-83464400D01*
X135572500Y-83566000D02*
X132816600Y-83566000D01*
X132816600Y-83566000D02*
X132715000Y-83464400D01*
X135699500Y-90741500D02*
X132829300Y-90741500D01*
X132829300Y-90741500D02*
X132715000Y-90627200D01*
X116840000Y-83464400D02*
X116840000Y-87249000D01*
X114300000Y-81280000D02*
X116484400Y-83464400D01*
X116484400Y-83464400D02*
X116840000Y-83464400D01*
X112953800Y-80060800D02*
X113080800Y-80060800D01*
X113080800Y-80060800D02*
X114300000Y-81280000D01*
X112953800Y-80060800D02*
X112953800Y-79349600D01*
D17*
G36*
X141530000Y-100890000D02*
X128247159Y-100890000D01*
X128285923Y-100851303D01*
X128460301Y-100431354D01*
X128460698Y-99976641D01*
X128287054Y-99556388D01*
X127965803Y-99234577D01*
X127545854Y-99060199D01*
X127543861Y-99060197D01*
X127964112Y-98886554D01*
X128285923Y-98565303D01*
X128460301Y-98145354D01*
X128460316Y-98127258D01*
X128857481Y-98127258D01*
X129004887Y-98483157D01*
X129359216Y-98878176D01*
X129837741Y-99107530D01*
X130048000Y-98985318D01*
X130048000Y-97917000D01*
X128980482Y-97917000D01*
X128857481Y-98127258D01*
X128460316Y-98127258D01*
X128460698Y-97690641D01*
X128362401Y-97452742D01*
X128857481Y-97452742D01*
X128980482Y-97663000D01*
X130048000Y-97663000D01*
X130048000Y-96594682D01*
X130302000Y-96594682D01*
X130302000Y-97663000D01*
X130322000Y-97663000D01*
X130322000Y-97917000D01*
X130302000Y-97917000D01*
X130302000Y-98985318D01*
X130512259Y-99107530D01*
X130990784Y-98878176D01*
X131342560Y-98486003D01*
X131342560Y-98515000D01*
X131386838Y-98750317D01*
X131525910Y-98966441D01*
X131738110Y-99111431D01*
X131990000Y-99162440D01*
X133440000Y-99162440D01*
X133675317Y-99118162D01*
X133891441Y-98979090D01*
X134036431Y-98766890D01*
X134087440Y-98515000D01*
X134087440Y-98232619D01*
X136194613Y-98232619D01*
X136534155Y-99054372D01*
X137162321Y-99683636D01*
X137983481Y-100024611D01*
X138872619Y-100025387D01*
X139694372Y-99685845D01*
X140323636Y-99057679D01*
X140664611Y-98236519D01*
X140665387Y-97347381D01*
X140325845Y-96525628D01*
X139697679Y-95896364D01*
X138876519Y-95555389D01*
X137987381Y-95554613D01*
X137165628Y-95894155D01*
X136536364Y-96522321D01*
X136195389Y-97343481D01*
X136194613Y-98232619D01*
X134087440Y-98232619D01*
X134087440Y-97065000D01*
X134043162Y-96829683D01*
X133904090Y-96613559D01*
X133691890Y-96468569D01*
X133440000Y-96417560D01*
X131990000Y-96417560D01*
X131754683Y-96461838D01*
X131538559Y-96600910D01*
X131393569Y-96813110D01*
X131342560Y-97065000D01*
X131342560Y-97093997D01*
X130990784Y-96701824D01*
X130512259Y-96472470D01*
X130302000Y-96594682D01*
X130048000Y-96594682D01*
X129837741Y-96472470D01*
X129359216Y-96701824D01*
X129004887Y-97096843D01*
X128857481Y-97452742D01*
X128362401Y-97452742D01*
X128287054Y-97270388D01*
X127965803Y-96948577D01*
X127545854Y-96774199D01*
X127091141Y-96773802D01*
X126670888Y-96947446D01*
X126588190Y-97030000D01*
X125825854Y-97030000D01*
X125788162Y-96829683D01*
X125649090Y-96613559D01*
X125436890Y-96468569D01*
X125185000Y-96417560D01*
X123735000Y-96417560D01*
X123499683Y-96461838D01*
X123283559Y-96600910D01*
X123138569Y-96813110D01*
X123087560Y-97065000D01*
X123087560Y-97096603D01*
X122908309Y-96828335D01*
X122467093Y-96533524D01*
X121946644Y-96430000D01*
X121893356Y-96430000D01*
X121372907Y-96533524D01*
X120931691Y-96828335D01*
X120636880Y-97269551D01*
X120631937Y-97294400D01*
X120550113Y-97096843D01*
X120195784Y-96701824D01*
X119717259Y-96472470D01*
X119507000Y-96594682D01*
X119507000Y-97663000D01*
X119527000Y-97663000D01*
X119527000Y-97917000D01*
X119507000Y-97917000D01*
X119507000Y-98985318D01*
X119717259Y-99107530D01*
X120195784Y-98878176D01*
X120550113Y-98483157D01*
X120631937Y-98285600D01*
X120636880Y-98310449D01*
X120931691Y-98751665D01*
X121372907Y-99046476D01*
X121893356Y-99150000D01*
X121946644Y-99150000D01*
X122162301Y-99107103D01*
X123287600Y-100232402D01*
X123534162Y-100397149D01*
X123825001Y-100455001D01*
X126184897Y-100455001D01*
X126347946Y-100849612D01*
X126388264Y-100890000D01*
X102310000Y-100890000D01*
X102310000Y-98232619D01*
X103174613Y-98232619D01*
X103514155Y-99054372D01*
X104142321Y-99683636D01*
X104963481Y-100024611D01*
X105852619Y-100025387D01*
X106674372Y-99685845D01*
X107303636Y-99057679D01*
X107644611Y-98236519D01*
X107645000Y-97790000D01*
X115453356Y-97790000D01*
X115556880Y-98310449D01*
X115851691Y-98751665D01*
X116292907Y-99046476D01*
X116813356Y-99150000D01*
X116866644Y-99150000D01*
X117387093Y-99046476D01*
X117828309Y-98751665D01*
X118123120Y-98310449D01*
X118128063Y-98285600D01*
X118209887Y-98483157D01*
X118564216Y-98878176D01*
X119042741Y-99107530D01*
X119253000Y-98985318D01*
X119253000Y-97917000D01*
X119233000Y-97917000D01*
X119233000Y-97663000D01*
X119253000Y-97663000D01*
X119253000Y-96594682D01*
X119042741Y-96472470D01*
X118564216Y-96701824D01*
X118209887Y-97096843D01*
X118128063Y-97294400D01*
X118123120Y-97269551D01*
X117828309Y-96828335D01*
X117387093Y-96533524D01*
X116866644Y-96430000D01*
X116813356Y-96430000D01*
X116292907Y-96533524D01*
X115851691Y-96828335D01*
X115556880Y-97269551D01*
X115453356Y-97790000D01*
X107645000Y-97790000D01*
X107645387Y-97347381D01*
X107305845Y-96525628D01*
X106677679Y-95896364D01*
X105856519Y-95555389D01*
X104967381Y-95554613D01*
X104145628Y-95894155D01*
X103516364Y-96522321D01*
X103175389Y-97343481D01*
X103174613Y-98232619D01*
X102310000Y-98232619D01*
X102310000Y-92822532D01*
X104059073Y-92822532D01*
X104157736Y-93089387D01*
X104767461Y-93315908D01*
X105417460Y-93291856D01*
X105906264Y-93089387D01*
X106004927Y-92822532D01*
X105032000Y-91849605D01*
X104059073Y-92822532D01*
X102310000Y-92822532D01*
X102310000Y-91405461D01*
X103386092Y-91405461D01*
X103410144Y-92055460D01*
X103612613Y-92544264D01*
X103879468Y-92642927D01*
X104852395Y-91670000D01*
X105211605Y-91670000D01*
X106184532Y-92642927D01*
X106451387Y-92544264D01*
X106570914Y-92222532D01*
X109009073Y-92222532D01*
X109107736Y-92489387D01*
X109717461Y-92715908D01*
X110367460Y-92691856D01*
X110856264Y-92489387D01*
X110954927Y-92222532D01*
X109982000Y-91249605D01*
X109009073Y-92222532D01*
X106570914Y-92222532D01*
X106677908Y-91934539D01*
X106653856Y-91284540D01*
X106455416Y-90805461D01*
X108336092Y-90805461D01*
X108360144Y-91455460D01*
X108562613Y-91944264D01*
X108829468Y-92042927D01*
X109802395Y-91070000D01*
X110161605Y-91070000D01*
X111134532Y-92042927D01*
X111401387Y-91944264D01*
X111627908Y-91334539D01*
X111603856Y-90684540D01*
X111580106Y-90627200D01*
X115453356Y-90627200D01*
X115556880Y-91147649D01*
X115851691Y-91588865D01*
X116292907Y-91883676D01*
X116813356Y-91987200D01*
X116866644Y-91987200D01*
X117387093Y-91883676D01*
X117828309Y-91588865D01*
X118123120Y-91147649D01*
X118128063Y-91122800D01*
X118209887Y-91320357D01*
X118564216Y-91715376D01*
X119042741Y-91944730D01*
X119253000Y-91822518D01*
X119253000Y-90754200D01*
X119233000Y-90754200D01*
X119233000Y-90500200D01*
X119253000Y-90500200D01*
X119253000Y-89431882D01*
X119507000Y-89431882D01*
X119507000Y-90500200D01*
X119527000Y-90500200D01*
X119527000Y-90754200D01*
X119507000Y-90754200D01*
X119507000Y-91822518D01*
X119717259Y-91944730D01*
X120195784Y-91715376D01*
X120550113Y-91320357D01*
X120631937Y-91122800D01*
X120636880Y-91147649D01*
X120931691Y-91588865D01*
X121372907Y-91883676D01*
X121893356Y-91987200D01*
X121946644Y-91987200D01*
X122162301Y-91944303D01*
X123846399Y-93628401D01*
X124092960Y-93793148D01*
X124383800Y-93851000D01*
X126461137Y-93851000D01*
X126669197Y-94059423D01*
X127089146Y-94233801D01*
X127543859Y-94234198D01*
X127964112Y-94060554D01*
X128285923Y-93739303D01*
X128460301Y-93319354D01*
X128460698Y-92864641D01*
X128287054Y-92444388D01*
X127965803Y-92122577D01*
X127545854Y-91948199D01*
X127091141Y-91947802D01*
X126670888Y-92121446D01*
X126460969Y-92331000D01*
X124698602Y-92331000D01*
X124367242Y-91999640D01*
X125185000Y-91999640D01*
X125420317Y-91955362D01*
X125636441Y-91816290D01*
X125781431Y-91604090D01*
X125825352Y-91387200D01*
X126410425Y-91387200D01*
X126669197Y-91646423D01*
X127089146Y-91820801D01*
X127543859Y-91821198D01*
X127964112Y-91647554D01*
X128285923Y-91326303D01*
X128436174Y-90964458D01*
X128857481Y-90964458D01*
X129004887Y-91320357D01*
X129359216Y-91715376D01*
X129837741Y-91944730D01*
X130048000Y-91822518D01*
X130048000Y-90754200D01*
X128980482Y-90754200D01*
X128857481Y-90964458D01*
X128436174Y-90964458D01*
X128460301Y-90906354D01*
X128460698Y-90451641D01*
X128393886Y-90289942D01*
X128857481Y-90289942D01*
X128980482Y-90500200D01*
X130048000Y-90500200D01*
X130048000Y-89431882D01*
X130302000Y-89431882D01*
X130302000Y-90500200D01*
X130322000Y-90500200D01*
X130322000Y-90754200D01*
X130302000Y-90754200D01*
X130302000Y-91822518D01*
X130512259Y-91944730D01*
X130990784Y-91715376D01*
X131342560Y-91323203D01*
X131342560Y-91352200D01*
X131386838Y-91587517D01*
X131525910Y-91803641D01*
X131738110Y-91948631D01*
X131990000Y-91999640D01*
X133440000Y-91999640D01*
X133675317Y-91955362D01*
X133891441Y-91816290D01*
X134036431Y-91604090D01*
X134057206Y-91501500D01*
X134843137Y-91501500D01*
X135051197Y-91709923D01*
X135471146Y-91884301D01*
X135925859Y-91884698D01*
X136346112Y-91711054D01*
X136667923Y-91389803D01*
X136842301Y-90969854D01*
X136842698Y-90515141D01*
X136669054Y-90094888D01*
X136347803Y-89773077D01*
X135927854Y-89598699D01*
X135473141Y-89598302D01*
X135052888Y-89771946D01*
X134842969Y-89981500D01*
X134087440Y-89981500D01*
X134087440Y-89902200D01*
X134043162Y-89666883D01*
X133904090Y-89450759D01*
X133691890Y-89305769D01*
X133440000Y-89254760D01*
X131990000Y-89254760D01*
X131754683Y-89299038D01*
X131538559Y-89438110D01*
X131393569Y-89650310D01*
X131342560Y-89902200D01*
X131342560Y-89931197D01*
X130990784Y-89539024D01*
X130512259Y-89309670D01*
X130302000Y-89431882D01*
X130048000Y-89431882D01*
X129837741Y-89309670D01*
X129359216Y-89539024D01*
X129004887Y-89934043D01*
X128857481Y-90289942D01*
X128393886Y-90289942D01*
X128287054Y-90031388D01*
X127965803Y-89709577D01*
X127545854Y-89535199D01*
X127091141Y-89534802D01*
X126670888Y-89708446D01*
X126511857Y-89867200D01*
X125825854Y-89867200D01*
X125788162Y-89666883D01*
X125649090Y-89450759D01*
X125436890Y-89305769D01*
X125185000Y-89254760D01*
X123735000Y-89254760D01*
X123499683Y-89299038D01*
X123283559Y-89438110D01*
X123138569Y-89650310D01*
X123087560Y-89902200D01*
X123087560Y-89933803D01*
X122908309Y-89665535D01*
X122467093Y-89370724D01*
X121946644Y-89267200D01*
X121893356Y-89267200D01*
X121372907Y-89370724D01*
X120931691Y-89665535D01*
X120636880Y-90106751D01*
X120631937Y-90131600D01*
X120550113Y-89934043D01*
X120195784Y-89539024D01*
X119717259Y-89309670D01*
X119507000Y-89431882D01*
X119253000Y-89431882D01*
X119042741Y-89309670D01*
X118564216Y-89539024D01*
X118209887Y-89934043D01*
X118128063Y-90131600D01*
X118123120Y-90106751D01*
X117828309Y-89665535D01*
X117387093Y-89370724D01*
X116866644Y-89267200D01*
X116813356Y-89267200D01*
X116292907Y-89370724D01*
X115851691Y-89665535D01*
X115556880Y-90106751D01*
X115453356Y-90627200D01*
X111580106Y-90627200D01*
X111401387Y-90195736D01*
X111134532Y-90097073D01*
X110161605Y-91070000D01*
X109802395Y-91070000D01*
X108829468Y-90097073D01*
X108562613Y-90195736D01*
X108336092Y-90805461D01*
X106455416Y-90805461D01*
X106451387Y-90795736D01*
X106184532Y-90697073D01*
X105211605Y-91670000D01*
X104852395Y-91670000D01*
X103879468Y-90697073D01*
X103612613Y-90795736D01*
X103386092Y-91405461D01*
X102310000Y-91405461D01*
X102310000Y-90517468D01*
X104059073Y-90517468D01*
X105032000Y-91490395D01*
X106004927Y-90517468D01*
X105906264Y-90250613D01*
X105296539Y-90024092D01*
X104646540Y-90048144D01*
X104157736Y-90250613D01*
X104059073Y-90517468D01*
X102310000Y-90517468D01*
X102310000Y-89917468D01*
X109009073Y-89917468D01*
X109982000Y-90890395D01*
X110954927Y-89917468D01*
X110856264Y-89650613D01*
X110246539Y-89424092D01*
X109596540Y-89448144D01*
X109107736Y-89650613D01*
X109009073Y-89917468D01*
X102310000Y-89917468D01*
X102310000Y-79534767D01*
X112018638Y-79534767D01*
X112089057Y-79705194D01*
X112018962Y-79874001D01*
X112018638Y-80245967D01*
X112160683Y-80589743D01*
X112423473Y-80852992D01*
X112767001Y-80995638D01*
X112940988Y-80995790D01*
X113157059Y-81211861D01*
X113156802Y-81506359D01*
X113330446Y-81926612D01*
X113651697Y-82248423D01*
X114071646Y-82422801D01*
X114368258Y-82423060D01*
X115464221Y-83519023D01*
X115556880Y-83984849D01*
X115851691Y-84426065D01*
X116080000Y-84578616D01*
X116080000Y-86686537D01*
X116047808Y-86718673D01*
X115905162Y-87062201D01*
X115904838Y-87434167D01*
X116046883Y-87777943D01*
X116309673Y-88041192D01*
X116653201Y-88183838D01*
X117025167Y-88184162D01*
X117368943Y-88042117D01*
X117632192Y-87779327D01*
X117774838Y-87435799D01*
X117775162Y-87063833D01*
X117633117Y-86720057D01*
X117600000Y-86686882D01*
X117600000Y-84578616D01*
X117828309Y-84426065D01*
X118123120Y-83984849D01*
X118128063Y-83960000D01*
X118209887Y-84157557D01*
X118564216Y-84552576D01*
X119042741Y-84781930D01*
X119253000Y-84659718D01*
X119253000Y-83591400D01*
X119233000Y-83591400D01*
X119233000Y-83337400D01*
X119253000Y-83337400D01*
X119253000Y-82269082D01*
X119507000Y-82269082D01*
X119507000Y-83337400D01*
X119527000Y-83337400D01*
X119527000Y-83591400D01*
X119507000Y-83591400D01*
X119507000Y-84659718D01*
X119717259Y-84781930D01*
X120195784Y-84552576D01*
X120550113Y-84157557D01*
X120631937Y-83960000D01*
X120636880Y-83984849D01*
X120931691Y-84426065D01*
X121372907Y-84720876D01*
X121893356Y-84824400D01*
X121946644Y-84824400D01*
X122162301Y-84781503D01*
X123770199Y-86389401D01*
X124016760Y-86554148D01*
X124307600Y-86612000D01*
X126461137Y-86612000D01*
X126669197Y-86820423D01*
X127089146Y-86994801D01*
X127543859Y-86995198D01*
X127964112Y-86821554D01*
X128285923Y-86500303D01*
X128460301Y-86080354D01*
X128460698Y-85625641D01*
X128287054Y-85205388D01*
X127965803Y-84883577D01*
X127621509Y-84740614D01*
X127964112Y-84599054D01*
X128285923Y-84277803D01*
X128460301Y-83857854D01*
X128460350Y-83801658D01*
X128857481Y-83801658D01*
X129004887Y-84157557D01*
X129359216Y-84552576D01*
X129837741Y-84781930D01*
X130048000Y-84659718D01*
X130048000Y-83591400D01*
X128980482Y-83591400D01*
X128857481Y-83801658D01*
X128460350Y-83801658D01*
X128460698Y-83403141D01*
X128346659Y-83127142D01*
X128857481Y-83127142D01*
X128980482Y-83337400D01*
X130048000Y-83337400D01*
X130048000Y-82269082D01*
X130302000Y-82269082D01*
X130302000Y-83337400D01*
X130322000Y-83337400D01*
X130322000Y-83591400D01*
X130302000Y-83591400D01*
X130302000Y-84659718D01*
X130512259Y-84781930D01*
X130990784Y-84552576D01*
X131342560Y-84160403D01*
X131342560Y-84189400D01*
X131386838Y-84424717D01*
X131525910Y-84640841D01*
X131738110Y-84785831D01*
X131990000Y-84836840D01*
X133440000Y-84836840D01*
X133675317Y-84792562D01*
X133891441Y-84653490D01*
X134036431Y-84441290D01*
X134059778Y-84326000D01*
X134716137Y-84326000D01*
X134924197Y-84534423D01*
X135344146Y-84708801D01*
X135798859Y-84709198D01*
X136219112Y-84535554D01*
X136540923Y-84214303D01*
X136715301Y-83794354D01*
X136715698Y-83339641D01*
X136542054Y-82919388D01*
X136220803Y-82597577D01*
X135800854Y-82423199D01*
X135346141Y-82422802D01*
X134925888Y-82596446D01*
X134715969Y-82806000D01*
X134087440Y-82806000D01*
X134087440Y-82739400D01*
X134043162Y-82504083D01*
X133904090Y-82287959D01*
X133691890Y-82142969D01*
X133440000Y-82091960D01*
X131990000Y-82091960D01*
X131754683Y-82136238D01*
X131538559Y-82275310D01*
X131393569Y-82487510D01*
X131342560Y-82739400D01*
X131342560Y-82768397D01*
X130990784Y-82376224D01*
X130512259Y-82146870D01*
X130302000Y-82269082D01*
X130048000Y-82269082D01*
X129837741Y-82146870D01*
X129359216Y-82376224D01*
X129004887Y-82771243D01*
X128857481Y-83127142D01*
X128346659Y-83127142D01*
X128287054Y-82982888D01*
X127965803Y-82661077D01*
X127545854Y-82486699D01*
X127091141Y-82486302D01*
X126670888Y-82659946D01*
X126626357Y-82704400D01*
X125825854Y-82704400D01*
X125788162Y-82504083D01*
X125649090Y-82287959D01*
X125436890Y-82142969D01*
X125185000Y-82091960D01*
X123735000Y-82091960D01*
X123499683Y-82136238D01*
X123283559Y-82275310D01*
X123138569Y-82487510D01*
X123087560Y-82739400D01*
X123087560Y-82771003D01*
X122908309Y-82502735D01*
X122467093Y-82207924D01*
X121946644Y-82104400D01*
X121893356Y-82104400D01*
X121372907Y-82207924D01*
X120931691Y-82502735D01*
X120636880Y-82943951D01*
X120631937Y-82968800D01*
X120550113Y-82771243D01*
X120195784Y-82376224D01*
X119717259Y-82146870D01*
X119507000Y-82269082D01*
X119253000Y-82269082D01*
X119042741Y-82146870D01*
X118564216Y-82376224D01*
X118209887Y-82771243D01*
X118128063Y-82968800D01*
X118123120Y-82943951D01*
X117828309Y-82502735D01*
X117387093Y-82207924D01*
X116866644Y-82104400D01*
X116813356Y-82104400D01*
X116301097Y-82206295D01*
X115442941Y-81348139D01*
X115443198Y-81053641D01*
X115269554Y-80633388D01*
X114948303Y-80311577D01*
X114609561Y-80170919D01*
X129558686Y-80170919D01*
X129596824Y-80386856D01*
X130028055Y-80531091D01*
X130481657Y-80499322D01*
X130753176Y-80386856D01*
X130791314Y-80170919D01*
X130175000Y-79554605D01*
X129558686Y-80170919D01*
X114609561Y-80170919D01*
X114528354Y-80137199D01*
X114231742Y-80136940D01*
X113831594Y-79736792D01*
X113818543Y-79705206D01*
X113888638Y-79536399D01*
X113888906Y-79228055D01*
X129018909Y-79228055D01*
X129050678Y-79681657D01*
X129163144Y-79953176D01*
X129379081Y-79991314D01*
X129995395Y-79375000D01*
X130354605Y-79375000D01*
X130970919Y-79991314D01*
X131186856Y-79953176D01*
X131331091Y-79521945D01*
X131299322Y-79068343D01*
X131186856Y-78796824D01*
X130970919Y-78758686D01*
X130354605Y-79375000D01*
X129995395Y-79375000D01*
X129379081Y-78758686D01*
X129163144Y-78796824D01*
X129018909Y-79228055D01*
X113888906Y-79228055D01*
X113888962Y-79164433D01*
X113746917Y-78820657D01*
X113505763Y-78579081D01*
X129558686Y-78579081D01*
X130175000Y-79195395D01*
X130791314Y-78579081D01*
X130753176Y-78363144D01*
X130321945Y-78218909D01*
X129868343Y-78250678D01*
X129596824Y-78363144D01*
X129558686Y-78579081D01*
X113505763Y-78579081D01*
X113484127Y-78557408D01*
X113140599Y-78414762D01*
X112768633Y-78414438D01*
X112424857Y-78556483D01*
X112161608Y-78819273D01*
X112018962Y-79162801D01*
X112018638Y-79534767D01*
X102310000Y-79534767D01*
X102310000Y-78292167D01*
X102311873Y-77722532D01*
X109009073Y-77722532D01*
X109107736Y-77989387D01*
X109717461Y-78215908D01*
X110367460Y-78191856D01*
X110856264Y-77989387D01*
X110954927Y-77722532D01*
X109982000Y-76749605D01*
X109009073Y-77722532D01*
X102311873Y-77722532D01*
X102313847Y-77122532D01*
X104059073Y-77122532D01*
X104157736Y-77389387D01*
X104767461Y-77615908D01*
X105417460Y-77591856D01*
X105906264Y-77389387D01*
X106004927Y-77122532D01*
X105032000Y-76149605D01*
X104059073Y-77122532D01*
X102313847Y-77122532D01*
X102318508Y-75705461D01*
X103386092Y-75705461D01*
X103410144Y-76355460D01*
X103612613Y-76844264D01*
X103879468Y-76942927D01*
X104852395Y-75970000D01*
X105211605Y-75970000D01*
X106184532Y-76942927D01*
X106451387Y-76844264D01*
X106651559Y-76305461D01*
X108336092Y-76305461D01*
X108360144Y-76955460D01*
X108562613Y-77444264D01*
X108829468Y-77542927D01*
X109802395Y-76570000D01*
X110161605Y-76570000D01*
X111134532Y-77542927D01*
X111401387Y-77444264D01*
X111627908Y-76834539D01*
X111620807Y-76642619D01*
X113334613Y-76642619D01*
X113674155Y-77464372D01*
X114302321Y-78093636D01*
X115123481Y-78434611D01*
X116012619Y-78435387D01*
X116834372Y-78095845D01*
X117463636Y-77467679D01*
X117804611Y-76646519D01*
X117804614Y-76642619D01*
X136194613Y-76642619D01*
X136534155Y-77464372D01*
X137162321Y-78093636D01*
X137983481Y-78434611D01*
X138872619Y-78435387D01*
X139694372Y-78095845D01*
X140323636Y-77467679D01*
X140664611Y-76646519D01*
X140665387Y-75757381D01*
X140325845Y-74935628D01*
X139697679Y-74306364D01*
X138876519Y-73965389D01*
X137987381Y-73964613D01*
X137165628Y-74304155D01*
X136536364Y-74932321D01*
X136195389Y-75753481D01*
X136194613Y-76642619D01*
X117804614Y-76642619D01*
X117805387Y-75757381D01*
X117465845Y-74935628D01*
X116837679Y-74306364D01*
X116016519Y-73965389D01*
X115127381Y-73964613D01*
X114305628Y-74304155D01*
X113676364Y-74932321D01*
X113335389Y-75753481D01*
X113334613Y-76642619D01*
X111620807Y-76642619D01*
X111603856Y-76184540D01*
X111401387Y-75695736D01*
X111134532Y-75597073D01*
X110161605Y-76570000D01*
X109802395Y-76570000D01*
X108829468Y-75597073D01*
X108562613Y-75695736D01*
X108336092Y-76305461D01*
X106651559Y-76305461D01*
X106677908Y-76234539D01*
X106653856Y-75584540D01*
X106565123Y-75370319D01*
X107028886Y-75370319D01*
X107067024Y-75586256D01*
X107498255Y-75730491D01*
X107951857Y-75698722D01*
X108223376Y-75586256D01*
X108253186Y-75417468D01*
X109009073Y-75417468D01*
X109982000Y-76390395D01*
X110954927Y-75417468D01*
X110856264Y-75150613D01*
X110246539Y-74924092D01*
X109596540Y-74948144D01*
X109107736Y-75150613D01*
X109009073Y-75417468D01*
X108253186Y-75417468D01*
X108261514Y-75370319D01*
X107645200Y-74754005D01*
X107028886Y-75370319D01*
X106565123Y-75370319D01*
X106451387Y-75095736D01*
X106184532Y-74997073D01*
X105211605Y-75970000D01*
X104852395Y-75970000D01*
X103879468Y-74997073D01*
X103612613Y-75095736D01*
X103386092Y-75705461D01*
X102318508Y-75705461D01*
X102321429Y-74817468D01*
X104059073Y-74817468D01*
X105032000Y-75790395D01*
X106004927Y-74817468D01*
X105906264Y-74550613D01*
X105574761Y-74427455D01*
X106489109Y-74427455D01*
X106520878Y-74881057D01*
X106633344Y-75152576D01*
X106849281Y-75190714D01*
X107465595Y-74574400D01*
X107824805Y-74574400D01*
X108441119Y-75190714D01*
X108657056Y-75152576D01*
X108801291Y-74721345D01*
X108769522Y-74267743D01*
X108657056Y-73996224D01*
X108441119Y-73958086D01*
X107824805Y-74574400D01*
X107465595Y-74574400D01*
X106849281Y-73958086D01*
X106633344Y-73996224D01*
X106489109Y-74427455D01*
X105574761Y-74427455D01*
X105296539Y-74324092D01*
X104646540Y-74348144D01*
X104157736Y-74550613D01*
X104059073Y-74817468D01*
X102321429Y-74817468D01*
X102324846Y-73778481D01*
X107028886Y-73778481D01*
X107645200Y-74394795D01*
X108261514Y-73778481D01*
X108223376Y-73562544D01*
X107792145Y-73418309D01*
X107338543Y-73450078D01*
X107067024Y-73562544D01*
X107028886Y-73778481D01*
X102324846Y-73778481D01*
X102334935Y-70711359D01*
X131470202Y-70711359D01*
X131643846Y-71131612D01*
X131965097Y-71453423D01*
X132385046Y-71627801D01*
X132839759Y-71628198D01*
X133068495Y-71533687D01*
X133068493Y-71535410D01*
X133210538Y-71879186D01*
X133473328Y-72142435D01*
X133816856Y-72285081D01*
X134188822Y-72285405D01*
X134426357Y-72187258D01*
X134555897Y-72317023D01*
X134975846Y-72491401D01*
X135430559Y-72491798D01*
X135850812Y-72318154D01*
X136172623Y-71996903D01*
X136347001Y-71576954D01*
X136347398Y-71122241D01*
X136173754Y-70701988D01*
X135852503Y-70380177D01*
X135738164Y-70332699D01*
X135850812Y-70286154D01*
X136172623Y-69964903D01*
X136347001Y-69544954D01*
X136347398Y-69090241D01*
X136173754Y-68669988D01*
X135852503Y-68348177D01*
X135432554Y-68173799D01*
X134977841Y-68173402D01*
X134557588Y-68347046D01*
X134257969Y-68646143D01*
X134171799Y-68610362D01*
X133799833Y-68610038D01*
X133456057Y-68752083D01*
X133192808Y-69014873D01*
X133050162Y-69358401D01*
X133050101Y-69428712D01*
X132841754Y-69342199D01*
X132387041Y-69341802D01*
X131966788Y-69515446D01*
X131644977Y-69836697D01*
X131470599Y-70256646D01*
X131470202Y-70711359D01*
X102334935Y-70711359D01*
X102354480Y-64770000D01*
X137678356Y-64770000D01*
X137781880Y-65290449D01*
X138076691Y-65731665D01*
X138517907Y-66026476D01*
X138585897Y-66040000D01*
X138517907Y-66053524D01*
X138076691Y-66348335D01*
X137781880Y-66789551D01*
X137678356Y-67310000D01*
X137781880Y-67830449D01*
X138076691Y-68271665D01*
X138384835Y-68477560D01*
X138340000Y-68477560D01*
X138104683Y-68521838D01*
X137888559Y-68660910D01*
X137743569Y-68873110D01*
X137692560Y-69125000D01*
X137692560Y-70575000D01*
X137736838Y-70810317D01*
X137875910Y-71026441D01*
X138088110Y-71171431D01*
X138340000Y-71222440D01*
X139790000Y-71222440D01*
X140025317Y-71178162D01*
X140241441Y-71039090D01*
X140386431Y-70826890D01*
X140437440Y-70575000D01*
X140437440Y-69125000D01*
X140393162Y-68889683D01*
X140254090Y-68673559D01*
X140041890Y-68528569D01*
X139790000Y-68477560D01*
X139745165Y-68477560D01*
X140053309Y-68271665D01*
X140348120Y-67830449D01*
X140451644Y-67310000D01*
X140348120Y-66789551D01*
X140053309Y-66348335D01*
X139612093Y-66053524D01*
X139544103Y-66040000D01*
X139612093Y-66026476D01*
X140053309Y-65731665D01*
X140348120Y-65290449D01*
X140451644Y-64770000D01*
X140348120Y-64249551D01*
X140053309Y-63808335D01*
X139612093Y-63513524D01*
X139091644Y-63410000D01*
X139038356Y-63410000D01*
X138517907Y-63513524D01*
X138076691Y-63808335D01*
X137781880Y-64249551D01*
X137678356Y-64770000D01*
X102354480Y-64770000D01*
X102361336Y-62686000D01*
X141530000Y-62686000D01*
X141530000Y-100890000D01*
X141530000Y-100890000D01*
G37*
X141530000Y-100890000D02*
X128247159Y-100890000D01*
X128285923Y-100851303D01*
X128460301Y-100431354D01*
X128460698Y-99976641D01*
X128287054Y-99556388D01*
X127965803Y-99234577D01*
X127545854Y-99060199D01*
X127543861Y-99060197D01*
X127964112Y-98886554D01*
X128285923Y-98565303D01*
X128460301Y-98145354D01*
X128460316Y-98127258D01*
X128857481Y-98127258D01*
X129004887Y-98483157D01*
X129359216Y-98878176D01*
X129837741Y-99107530D01*
X130048000Y-98985318D01*
X130048000Y-97917000D01*
X128980482Y-97917000D01*
X128857481Y-98127258D01*
X128460316Y-98127258D01*
X128460698Y-97690641D01*
X128362401Y-97452742D01*
X128857481Y-97452742D01*
X128980482Y-97663000D01*
X130048000Y-97663000D01*
X130048000Y-96594682D01*
X130302000Y-96594682D01*
X130302000Y-97663000D01*
X130322000Y-97663000D01*
X130322000Y-97917000D01*
X130302000Y-97917000D01*
X130302000Y-98985318D01*
X130512259Y-99107530D01*
X130990784Y-98878176D01*
X131342560Y-98486003D01*
X131342560Y-98515000D01*
X131386838Y-98750317D01*
X131525910Y-98966441D01*
X131738110Y-99111431D01*
X131990000Y-99162440D01*
X133440000Y-99162440D01*
X133675317Y-99118162D01*
X133891441Y-98979090D01*
X134036431Y-98766890D01*
X134087440Y-98515000D01*
X134087440Y-98232619D01*
X136194613Y-98232619D01*
X136534155Y-99054372D01*
X137162321Y-99683636D01*
X137983481Y-100024611D01*
X138872619Y-100025387D01*
X139694372Y-99685845D01*
X140323636Y-99057679D01*
X140664611Y-98236519D01*
X140665387Y-97347381D01*
X140325845Y-96525628D01*
X139697679Y-95896364D01*
X138876519Y-95555389D01*
X137987381Y-95554613D01*
X137165628Y-95894155D01*
X136536364Y-96522321D01*
X136195389Y-97343481D01*
X136194613Y-98232619D01*
X134087440Y-98232619D01*
X134087440Y-97065000D01*
X134043162Y-96829683D01*
X133904090Y-96613559D01*
X133691890Y-96468569D01*
X133440000Y-96417560D01*
X131990000Y-96417560D01*
X131754683Y-96461838D01*
X131538559Y-96600910D01*
X131393569Y-96813110D01*
X131342560Y-97065000D01*
X131342560Y-97093997D01*
X130990784Y-96701824D01*
X130512259Y-96472470D01*
X130302000Y-96594682D01*
X130048000Y-96594682D01*
X129837741Y-96472470D01*
X129359216Y-96701824D01*
X129004887Y-97096843D01*
X128857481Y-97452742D01*
X128362401Y-97452742D01*
X128287054Y-97270388D01*
X127965803Y-96948577D01*
X127545854Y-96774199D01*
X127091141Y-96773802D01*
X126670888Y-96947446D01*
X126588190Y-97030000D01*
X125825854Y-97030000D01*
X125788162Y-96829683D01*
X125649090Y-96613559D01*
X125436890Y-96468569D01*
X125185000Y-96417560D01*
X123735000Y-96417560D01*
X123499683Y-96461838D01*
X123283559Y-96600910D01*
X123138569Y-96813110D01*
X123087560Y-97065000D01*
X123087560Y-97096603D01*
X122908309Y-96828335D01*
X122467093Y-96533524D01*
X121946644Y-96430000D01*
X121893356Y-96430000D01*
X121372907Y-96533524D01*
X120931691Y-96828335D01*
X120636880Y-97269551D01*
X120631937Y-97294400D01*
X120550113Y-97096843D01*
X120195784Y-96701824D01*
X119717259Y-96472470D01*
X119507000Y-96594682D01*
X119507000Y-97663000D01*
X119527000Y-97663000D01*
X119527000Y-97917000D01*
X119507000Y-97917000D01*
X119507000Y-98985318D01*
X119717259Y-99107530D01*
X120195784Y-98878176D01*
X120550113Y-98483157D01*
X120631937Y-98285600D01*
X120636880Y-98310449D01*
X120931691Y-98751665D01*
X121372907Y-99046476D01*
X121893356Y-99150000D01*
X121946644Y-99150000D01*
X122162301Y-99107103D01*
X123287600Y-100232402D01*
X123534162Y-100397149D01*
X123825001Y-100455001D01*
X126184897Y-100455001D01*
X126347946Y-100849612D01*
X126388264Y-100890000D01*
X102310000Y-100890000D01*
X102310000Y-98232619D01*
X103174613Y-98232619D01*
X103514155Y-99054372D01*
X104142321Y-99683636D01*
X104963481Y-100024611D01*
X105852619Y-100025387D01*
X106674372Y-99685845D01*
X107303636Y-99057679D01*
X107644611Y-98236519D01*
X107645000Y-97790000D01*
X115453356Y-97790000D01*
X115556880Y-98310449D01*
X115851691Y-98751665D01*
X116292907Y-99046476D01*
X116813356Y-99150000D01*
X116866644Y-99150000D01*
X117387093Y-99046476D01*
X117828309Y-98751665D01*
X118123120Y-98310449D01*
X118128063Y-98285600D01*
X118209887Y-98483157D01*
X118564216Y-98878176D01*
X119042741Y-99107530D01*
X119253000Y-98985318D01*
X119253000Y-97917000D01*
X119233000Y-97917000D01*
X119233000Y-97663000D01*
X119253000Y-97663000D01*
X119253000Y-96594682D01*
X119042741Y-96472470D01*
X118564216Y-96701824D01*
X118209887Y-97096843D01*
X118128063Y-97294400D01*
X118123120Y-97269551D01*
X117828309Y-96828335D01*
X117387093Y-96533524D01*
X116866644Y-96430000D01*
X116813356Y-96430000D01*
X116292907Y-96533524D01*
X115851691Y-96828335D01*
X115556880Y-97269551D01*
X115453356Y-97790000D01*
X107645000Y-97790000D01*
X107645387Y-97347381D01*
X107305845Y-96525628D01*
X106677679Y-95896364D01*
X105856519Y-95555389D01*
X104967381Y-95554613D01*
X104145628Y-95894155D01*
X103516364Y-96522321D01*
X103175389Y-97343481D01*
X103174613Y-98232619D01*
X102310000Y-98232619D01*
X102310000Y-92822532D01*
X104059073Y-92822532D01*
X104157736Y-93089387D01*
X104767461Y-93315908D01*
X105417460Y-93291856D01*
X105906264Y-93089387D01*
X106004927Y-92822532D01*
X105032000Y-91849605D01*
X104059073Y-92822532D01*
X102310000Y-92822532D01*
X102310000Y-91405461D01*
X103386092Y-91405461D01*
X103410144Y-92055460D01*
X103612613Y-92544264D01*
X103879468Y-92642927D01*
X104852395Y-91670000D01*
X105211605Y-91670000D01*
X106184532Y-92642927D01*
X106451387Y-92544264D01*
X106570914Y-92222532D01*
X109009073Y-92222532D01*
X109107736Y-92489387D01*
X109717461Y-92715908D01*
X110367460Y-92691856D01*
X110856264Y-92489387D01*
X110954927Y-92222532D01*
X109982000Y-91249605D01*
X109009073Y-92222532D01*
X106570914Y-92222532D01*
X106677908Y-91934539D01*
X106653856Y-91284540D01*
X106455416Y-90805461D01*
X108336092Y-90805461D01*
X108360144Y-91455460D01*
X108562613Y-91944264D01*
X108829468Y-92042927D01*
X109802395Y-91070000D01*
X110161605Y-91070000D01*
X111134532Y-92042927D01*
X111401387Y-91944264D01*
X111627908Y-91334539D01*
X111603856Y-90684540D01*
X111580106Y-90627200D01*
X115453356Y-90627200D01*
X115556880Y-91147649D01*
X115851691Y-91588865D01*
X116292907Y-91883676D01*
X116813356Y-91987200D01*
X116866644Y-91987200D01*
X117387093Y-91883676D01*
X117828309Y-91588865D01*
X118123120Y-91147649D01*
X118128063Y-91122800D01*
X118209887Y-91320357D01*
X118564216Y-91715376D01*
X119042741Y-91944730D01*
X119253000Y-91822518D01*
X119253000Y-90754200D01*
X119233000Y-90754200D01*
X119233000Y-90500200D01*
X119253000Y-90500200D01*
X119253000Y-89431882D01*
X119507000Y-89431882D01*
X119507000Y-90500200D01*
X119527000Y-90500200D01*
X119527000Y-90754200D01*
X119507000Y-90754200D01*
X119507000Y-91822518D01*
X119717259Y-91944730D01*
X120195784Y-91715376D01*
X120550113Y-91320357D01*
X120631937Y-91122800D01*
X120636880Y-91147649D01*
X120931691Y-91588865D01*
X121372907Y-91883676D01*
X121893356Y-91987200D01*
X121946644Y-91987200D01*
X122162301Y-91944303D01*
X123846399Y-93628401D01*
X124092960Y-93793148D01*
X124383800Y-93851000D01*
X126461137Y-93851000D01*
X126669197Y-94059423D01*
X127089146Y-94233801D01*
X127543859Y-94234198D01*
X127964112Y-94060554D01*
X128285923Y-93739303D01*
X128460301Y-93319354D01*
X128460698Y-92864641D01*
X128287054Y-92444388D01*
X127965803Y-92122577D01*
X127545854Y-91948199D01*
X127091141Y-91947802D01*
X126670888Y-92121446D01*
X126460969Y-92331000D01*
X124698602Y-92331000D01*
X124367242Y-91999640D01*
X125185000Y-91999640D01*
X125420317Y-91955362D01*
X125636441Y-91816290D01*
X125781431Y-91604090D01*
X125825352Y-91387200D01*
X126410425Y-91387200D01*
X126669197Y-91646423D01*
X127089146Y-91820801D01*
X127543859Y-91821198D01*
X127964112Y-91647554D01*
X128285923Y-91326303D01*
X128436174Y-90964458D01*
X128857481Y-90964458D01*
X129004887Y-91320357D01*
X129359216Y-91715376D01*
X129837741Y-91944730D01*
X130048000Y-91822518D01*
X130048000Y-90754200D01*
X128980482Y-90754200D01*
X128857481Y-90964458D01*
X128436174Y-90964458D01*
X128460301Y-90906354D01*
X128460698Y-90451641D01*
X128393886Y-90289942D01*
X128857481Y-90289942D01*
X128980482Y-90500200D01*
X130048000Y-90500200D01*
X130048000Y-89431882D01*
X130302000Y-89431882D01*
X130302000Y-90500200D01*
X130322000Y-90500200D01*
X130322000Y-90754200D01*
X130302000Y-90754200D01*
X130302000Y-91822518D01*
X130512259Y-91944730D01*
X130990784Y-91715376D01*
X131342560Y-91323203D01*
X131342560Y-91352200D01*
X131386838Y-91587517D01*
X131525910Y-91803641D01*
X131738110Y-91948631D01*
X131990000Y-91999640D01*
X133440000Y-91999640D01*
X133675317Y-91955362D01*
X133891441Y-91816290D01*
X134036431Y-91604090D01*
X134057206Y-91501500D01*
X134843137Y-91501500D01*
X135051197Y-91709923D01*
X135471146Y-91884301D01*
X135925859Y-91884698D01*
X136346112Y-91711054D01*
X136667923Y-91389803D01*
X136842301Y-90969854D01*
X136842698Y-90515141D01*
X136669054Y-90094888D01*
X136347803Y-89773077D01*
X135927854Y-89598699D01*
X135473141Y-89598302D01*
X135052888Y-89771946D01*
X134842969Y-89981500D01*
X134087440Y-89981500D01*
X134087440Y-89902200D01*
X134043162Y-89666883D01*
X133904090Y-89450759D01*
X133691890Y-89305769D01*
X133440000Y-89254760D01*
X131990000Y-89254760D01*
X131754683Y-89299038D01*
X131538559Y-89438110D01*
X131393569Y-89650310D01*
X131342560Y-89902200D01*
X131342560Y-89931197D01*
X130990784Y-89539024D01*
X130512259Y-89309670D01*
X130302000Y-89431882D01*
X130048000Y-89431882D01*
X129837741Y-89309670D01*
X129359216Y-89539024D01*
X129004887Y-89934043D01*
X128857481Y-90289942D01*
X128393886Y-90289942D01*
X128287054Y-90031388D01*
X127965803Y-89709577D01*
X127545854Y-89535199D01*
X127091141Y-89534802D01*
X126670888Y-89708446D01*
X126511857Y-89867200D01*
X125825854Y-89867200D01*
X125788162Y-89666883D01*
X125649090Y-89450759D01*
X125436890Y-89305769D01*
X125185000Y-89254760D01*
X123735000Y-89254760D01*
X123499683Y-89299038D01*
X123283559Y-89438110D01*
X123138569Y-89650310D01*
X123087560Y-89902200D01*
X123087560Y-89933803D01*
X122908309Y-89665535D01*
X122467093Y-89370724D01*
X121946644Y-89267200D01*
X121893356Y-89267200D01*
X121372907Y-89370724D01*
X120931691Y-89665535D01*
X120636880Y-90106751D01*
X120631937Y-90131600D01*
X120550113Y-89934043D01*
X120195784Y-89539024D01*
X119717259Y-89309670D01*
X119507000Y-89431882D01*
X119253000Y-89431882D01*
X119042741Y-89309670D01*
X118564216Y-89539024D01*
X118209887Y-89934043D01*
X118128063Y-90131600D01*
X118123120Y-90106751D01*
X117828309Y-89665535D01*
X117387093Y-89370724D01*
X116866644Y-89267200D01*
X116813356Y-89267200D01*
X116292907Y-89370724D01*
X115851691Y-89665535D01*
X115556880Y-90106751D01*
X115453356Y-90627200D01*
X111580106Y-90627200D01*
X111401387Y-90195736D01*
X111134532Y-90097073D01*
X110161605Y-91070000D01*
X109802395Y-91070000D01*
X108829468Y-90097073D01*
X108562613Y-90195736D01*
X108336092Y-90805461D01*
X106455416Y-90805461D01*
X106451387Y-90795736D01*
X106184532Y-90697073D01*
X105211605Y-91670000D01*
X104852395Y-91670000D01*
X103879468Y-90697073D01*
X103612613Y-90795736D01*
X103386092Y-91405461D01*
X102310000Y-91405461D01*
X102310000Y-90517468D01*
X104059073Y-90517468D01*
X105032000Y-91490395D01*
X106004927Y-90517468D01*
X105906264Y-90250613D01*
X105296539Y-90024092D01*
X104646540Y-90048144D01*
X104157736Y-90250613D01*
X104059073Y-90517468D01*
X102310000Y-90517468D01*
X102310000Y-89917468D01*
X109009073Y-89917468D01*
X109982000Y-90890395D01*
X110954927Y-89917468D01*
X110856264Y-89650613D01*
X110246539Y-89424092D01*
X109596540Y-89448144D01*
X109107736Y-89650613D01*
X109009073Y-89917468D01*
X102310000Y-89917468D01*
X102310000Y-79534767D01*
X112018638Y-79534767D01*
X112089057Y-79705194D01*
X112018962Y-79874001D01*
X112018638Y-80245967D01*
X112160683Y-80589743D01*
X112423473Y-80852992D01*
X112767001Y-80995638D01*
X112940988Y-80995790D01*
X113157059Y-81211861D01*
X113156802Y-81506359D01*
X113330446Y-81926612D01*
X113651697Y-82248423D01*
X114071646Y-82422801D01*
X114368258Y-82423060D01*
X115464221Y-83519023D01*
X115556880Y-83984849D01*
X115851691Y-84426065D01*
X116080000Y-84578616D01*
X116080000Y-86686537D01*
X116047808Y-86718673D01*
X115905162Y-87062201D01*
X115904838Y-87434167D01*
X116046883Y-87777943D01*
X116309673Y-88041192D01*
X116653201Y-88183838D01*
X117025167Y-88184162D01*
X117368943Y-88042117D01*
X117632192Y-87779327D01*
X117774838Y-87435799D01*
X117775162Y-87063833D01*
X117633117Y-86720057D01*
X117600000Y-86686882D01*
X117600000Y-84578616D01*
X117828309Y-84426065D01*
X118123120Y-83984849D01*
X118128063Y-83960000D01*
X118209887Y-84157557D01*
X118564216Y-84552576D01*
X119042741Y-84781930D01*
X119253000Y-84659718D01*
X119253000Y-83591400D01*
X119233000Y-83591400D01*
X119233000Y-83337400D01*
X119253000Y-83337400D01*
X119253000Y-82269082D01*
X119507000Y-82269082D01*
X119507000Y-83337400D01*
X119527000Y-83337400D01*
X119527000Y-83591400D01*
X119507000Y-83591400D01*
X119507000Y-84659718D01*
X119717259Y-84781930D01*
X120195784Y-84552576D01*
X120550113Y-84157557D01*
X120631937Y-83960000D01*
X120636880Y-83984849D01*
X120931691Y-84426065D01*
X121372907Y-84720876D01*
X121893356Y-84824400D01*
X121946644Y-84824400D01*
X122162301Y-84781503D01*
X123770199Y-86389401D01*
X124016760Y-86554148D01*
X124307600Y-86612000D01*
X126461137Y-86612000D01*
X126669197Y-86820423D01*
X127089146Y-86994801D01*
X127543859Y-86995198D01*
X127964112Y-86821554D01*
X128285923Y-86500303D01*
X128460301Y-86080354D01*
X128460698Y-85625641D01*
X128287054Y-85205388D01*
X127965803Y-84883577D01*
X127621509Y-84740614D01*
X127964112Y-84599054D01*
X128285923Y-84277803D01*
X128460301Y-83857854D01*
X128460350Y-83801658D01*
X128857481Y-83801658D01*
X129004887Y-84157557D01*
X129359216Y-84552576D01*
X129837741Y-84781930D01*
X130048000Y-84659718D01*
X130048000Y-83591400D01*
X128980482Y-83591400D01*
X128857481Y-83801658D01*
X128460350Y-83801658D01*
X128460698Y-83403141D01*
X128346659Y-83127142D01*
X128857481Y-83127142D01*
X128980482Y-83337400D01*
X130048000Y-83337400D01*
X130048000Y-82269082D01*
X130302000Y-82269082D01*
X130302000Y-83337400D01*
X130322000Y-83337400D01*
X130322000Y-83591400D01*
X130302000Y-83591400D01*
X130302000Y-84659718D01*
X130512259Y-84781930D01*
X130990784Y-84552576D01*
X131342560Y-84160403D01*
X131342560Y-84189400D01*
X131386838Y-84424717D01*
X131525910Y-84640841D01*
X131738110Y-84785831D01*
X131990000Y-84836840D01*
X133440000Y-84836840D01*
X133675317Y-84792562D01*
X133891441Y-84653490D01*
X134036431Y-84441290D01*
X134059778Y-84326000D01*
X134716137Y-84326000D01*
X134924197Y-84534423D01*
X135344146Y-84708801D01*
X135798859Y-84709198D01*
X136219112Y-84535554D01*
X136540923Y-84214303D01*
X136715301Y-83794354D01*
X136715698Y-83339641D01*
X136542054Y-82919388D01*
X136220803Y-82597577D01*
X135800854Y-82423199D01*
X135346141Y-82422802D01*
X134925888Y-82596446D01*
X134715969Y-82806000D01*
X134087440Y-82806000D01*
X134087440Y-82739400D01*
X134043162Y-82504083D01*
X133904090Y-82287959D01*
X133691890Y-82142969D01*
X133440000Y-82091960D01*
X131990000Y-82091960D01*
X131754683Y-82136238D01*
X131538559Y-82275310D01*
X131393569Y-82487510D01*
X131342560Y-82739400D01*
X131342560Y-82768397D01*
X130990784Y-82376224D01*
X130512259Y-82146870D01*
X130302000Y-82269082D01*
X130048000Y-82269082D01*
X129837741Y-82146870D01*
X129359216Y-82376224D01*
X129004887Y-82771243D01*
X128857481Y-83127142D01*
X128346659Y-83127142D01*
X128287054Y-82982888D01*
X127965803Y-82661077D01*
X127545854Y-82486699D01*
X127091141Y-82486302D01*
X126670888Y-82659946D01*
X126626357Y-82704400D01*
X125825854Y-82704400D01*
X125788162Y-82504083D01*
X125649090Y-82287959D01*
X125436890Y-82142969D01*
X125185000Y-82091960D01*
X123735000Y-82091960D01*
X123499683Y-82136238D01*
X123283559Y-82275310D01*
X123138569Y-82487510D01*
X123087560Y-82739400D01*
X123087560Y-82771003D01*
X122908309Y-82502735D01*
X122467093Y-82207924D01*
X121946644Y-82104400D01*
X121893356Y-82104400D01*
X121372907Y-82207924D01*
X120931691Y-82502735D01*
X120636880Y-82943951D01*
X120631937Y-82968800D01*
X120550113Y-82771243D01*
X120195784Y-82376224D01*
X119717259Y-82146870D01*
X119507000Y-82269082D01*
X119253000Y-82269082D01*
X119042741Y-82146870D01*
X118564216Y-82376224D01*
X118209887Y-82771243D01*
X118128063Y-82968800D01*
X118123120Y-82943951D01*
X117828309Y-82502735D01*
X117387093Y-82207924D01*
X116866644Y-82104400D01*
X116813356Y-82104400D01*
X116301097Y-82206295D01*
X115442941Y-81348139D01*
X115443198Y-81053641D01*
X115269554Y-80633388D01*
X114948303Y-80311577D01*
X114609561Y-80170919D01*
X129558686Y-80170919D01*
X129596824Y-80386856D01*
X130028055Y-80531091D01*
X130481657Y-80499322D01*
X130753176Y-80386856D01*
X130791314Y-80170919D01*
X130175000Y-79554605D01*
X129558686Y-80170919D01*
X114609561Y-80170919D01*
X114528354Y-80137199D01*
X114231742Y-80136940D01*
X113831594Y-79736792D01*
X113818543Y-79705206D01*
X113888638Y-79536399D01*
X113888906Y-79228055D01*
X129018909Y-79228055D01*
X129050678Y-79681657D01*
X129163144Y-79953176D01*
X129379081Y-79991314D01*
X129995395Y-79375000D01*
X130354605Y-79375000D01*
X130970919Y-79991314D01*
X131186856Y-79953176D01*
X131331091Y-79521945D01*
X131299322Y-79068343D01*
X131186856Y-78796824D01*
X130970919Y-78758686D01*
X130354605Y-79375000D01*
X129995395Y-79375000D01*
X129379081Y-78758686D01*
X129163144Y-78796824D01*
X129018909Y-79228055D01*
X113888906Y-79228055D01*
X113888962Y-79164433D01*
X113746917Y-78820657D01*
X113505763Y-78579081D01*
X129558686Y-78579081D01*
X130175000Y-79195395D01*
X130791314Y-78579081D01*
X130753176Y-78363144D01*
X130321945Y-78218909D01*
X129868343Y-78250678D01*
X129596824Y-78363144D01*
X129558686Y-78579081D01*
X113505763Y-78579081D01*
X113484127Y-78557408D01*
X113140599Y-78414762D01*
X112768633Y-78414438D01*
X112424857Y-78556483D01*
X112161608Y-78819273D01*
X112018962Y-79162801D01*
X112018638Y-79534767D01*
X102310000Y-79534767D01*
X102310000Y-78292167D01*
X102311873Y-77722532D01*
X109009073Y-77722532D01*
X109107736Y-77989387D01*
X109717461Y-78215908D01*
X110367460Y-78191856D01*
X110856264Y-77989387D01*
X110954927Y-77722532D01*
X109982000Y-76749605D01*
X109009073Y-77722532D01*
X102311873Y-77722532D01*
X102313847Y-77122532D01*
X104059073Y-77122532D01*
X104157736Y-77389387D01*
X104767461Y-77615908D01*
X105417460Y-77591856D01*
X105906264Y-77389387D01*
X106004927Y-77122532D01*
X105032000Y-76149605D01*
X104059073Y-77122532D01*
X102313847Y-77122532D01*
X102318508Y-75705461D01*
X103386092Y-75705461D01*
X103410144Y-76355460D01*
X103612613Y-76844264D01*
X103879468Y-76942927D01*
X104852395Y-75970000D01*
X105211605Y-75970000D01*
X106184532Y-76942927D01*
X106451387Y-76844264D01*
X106651559Y-76305461D01*
X108336092Y-76305461D01*
X108360144Y-76955460D01*
X108562613Y-77444264D01*
X108829468Y-77542927D01*
X109802395Y-76570000D01*
X110161605Y-76570000D01*
X111134532Y-77542927D01*
X111401387Y-77444264D01*
X111627908Y-76834539D01*
X111620807Y-76642619D01*
X113334613Y-76642619D01*
X113674155Y-77464372D01*
X114302321Y-78093636D01*
X115123481Y-78434611D01*
X116012619Y-78435387D01*
X116834372Y-78095845D01*
X117463636Y-77467679D01*
X117804611Y-76646519D01*
X117804614Y-76642619D01*
X136194613Y-76642619D01*
X136534155Y-77464372D01*
X137162321Y-78093636D01*
X137983481Y-78434611D01*
X138872619Y-78435387D01*
X139694372Y-78095845D01*
X140323636Y-77467679D01*
X140664611Y-76646519D01*
X140665387Y-75757381D01*
X140325845Y-74935628D01*
X139697679Y-74306364D01*
X138876519Y-73965389D01*
X137987381Y-73964613D01*
X137165628Y-74304155D01*
X136536364Y-74932321D01*
X136195389Y-75753481D01*
X136194613Y-76642619D01*
X117804614Y-76642619D01*
X117805387Y-75757381D01*
X117465845Y-74935628D01*
X116837679Y-74306364D01*
X116016519Y-73965389D01*
X115127381Y-73964613D01*
X114305628Y-74304155D01*
X113676364Y-74932321D01*
X113335389Y-75753481D01*
X113334613Y-76642619D01*
X111620807Y-76642619D01*
X111603856Y-76184540D01*
X111401387Y-75695736D01*
X111134532Y-75597073D01*
X110161605Y-76570000D01*
X109802395Y-76570000D01*
X108829468Y-75597073D01*
X108562613Y-75695736D01*
X108336092Y-76305461D01*
X106651559Y-76305461D01*
X106677908Y-76234539D01*
X106653856Y-75584540D01*
X106565123Y-75370319D01*
X107028886Y-75370319D01*
X107067024Y-75586256D01*
X107498255Y-75730491D01*
X107951857Y-75698722D01*
X108223376Y-75586256D01*
X108253186Y-75417468D01*
X109009073Y-75417468D01*
X109982000Y-76390395D01*
X110954927Y-75417468D01*
X110856264Y-75150613D01*
X110246539Y-74924092D01*
X109596540Y-74948144D01*
X109107736Y-75150613D01*
X109009073Y-75417468D01*
X108253186Y-75417468D01*
X108261514Y-75370319D01*
X107645200Y-74754005D01*
X107028886Y-75370319D01*
X106565123Y-75370319D01*
X106451387Y-75095736D01*
X106184532Y-74997073D01*
X105211605Y-75970000D01*
X104852395Y-75970000D01*
X103879468Y-74997073D01*
X103612613Y-75095736D01*
X103386092Y-75705461D01*
X102318508Y-75705461D01*
X102321429Y-74817468D01*
X104059073Y-74817468D01*
X105032000Y-75790395D01*
X106004927Y-74817468D01*
X105906264Y-74550613D01*
X105574761Y-74427455D01*
X106489109Y-74427455D01*
X106520878Y-74881057D01*
X106633344Y-75152576D01*
X106849281Y-75190714D01*
X107465595Y-74574400D01*
X107824805Y-74574400D01*
X108441119Y-75190714D01*
X108657056Y-75152576D01*
X108801291Y-74721345D01*
X108769522Y-74267743D01*
X108657056Y-73996224D01*
X108441119Y-73958086D01*
X107824805Y-74574400D01*
X107465595Y-74574400D01*
X106849281Y-73958086D01*
X106633344Y-73996224D01*
X106489109Y-74427455D01*
X105574761Y-74427455D01*
X105296539Y-74324092D01*
X104646540Y-74348144D01*
X104157736Y-74550613D01*
X104059073Y-74817468D01*
X102321429Y-74817468D01*
X102324846Y-73778481D01*
X107028886Y-73778481D01*
X107645200Y-74394795D01*
X108261514Y-73778481D01*
X108223376Y-73562544D01*
X107792145Y-73418309D01*
X107338543Y-73450078D01*
X107067024Y-73562544D01*
X107028886Y-73778481D01*
X102324846Y-73778481D01*
X102334935Y-70711359D01*
X131470202Y-70711359D01*
X131643846Y-71131612D01*
X131965097Y-71453423D01*
X132385046Y-71627801D01*
X132839759Y-71628198D01*
X133068495Y-71533687D01*
X133068493Y-71535410D01*
X133210538Y-71879186D01*
X133473328Y-72142435D01*
X133816856Y-72285081D01*
X134188822Y-72285405D01*
X134426357Y-72187258D01*
X134555897Y-72317023D01*
X134975846Y-72491401D01*
X135430559Y-72491798D01*
X135850812Y-72318154D01*
X136172623Y-71996903D01*
X136347001Y-71576954D01*
X136347398Y-71122241D01*
X136173754Y-70701988D01*
X135852503Y-70380177D01*
X135738164Y-70332699D01*
X135850812Y-70286154D01*
X136172623Y-69964903D01*
X136347001Y-69544954D01*
X136347398Y-69090241D01*
X136173754Y-68669988D01*
X135852503Y-68348177D01*
X135432554Y-68173799D01*
X134977841Y-68173402D01*
X134557588Y-68347046D01*
X134257969Y-68646143D01*
X134171799Y-68610362D01*
X133799833Y-68610038D01*
X133456057Y-68752083D01*
X133192808Y-69014873D01*
X133050162Y-69358401D01*
X133050101Y-69428712D01*
X132841754Y-69342199D01*
X132387041Y-69341802D01*
X131966788Y-69515446D01*
X131644977Y-69836697D01*
X131470599Y-70256646D01*
X131470202Y-70711359D01*
X102334935Y-70711359D01*
X102354480Y-64770000D01*
X137678356Y-64770000D01*
X137781880Y-65290449D01*
X138076691Y-65731665D01*
X138517907Y-66026476D01*
X138585897Y-66040000D01*
X138517907Y-66053524D01*
X138076691Y-66348335D01*
X137781880Y-66789551D01*
X137678356Y-67310000D01*
X137781880Y-67830449D01*
X138076691Y-68271665D01*
X138384835Y-68477560D01*
X138340000Y-68477560D01*
X138104683Y-68521838D01*
X137888559Y-68660910D01*
X137743569Y-68873110D01*
X137692560Y-69125000D01*
X137692560Y-70575000D01*
X137736838Y-70810317D01*
X137875910Y-71026441D01*
X138088110Y-71171431D01*
X138340000Y-71222440D01*
X139790000Y-71222440D01*
X140025317Y-71178162D01*
X140241441Y-71039090D01*
X140386431Y-70826890D01*
X140437440Y-70575000D01*
X140437440Y-69125000D01*
X140393162Y-68889683D01*
X140254090Y-68673559D01*
X140041890Y-68528569D01*
X139790000Y-68477560D01*
X139745165Y-68477560D01*
X140053309Y-68271665D01*
X140348120Y-67830449D01*
X140451644Y-67310000D01*
X140348120Y-66789551D01*
X140053309Y-66348335D01*
X139612093Y-66053524D01*
X139544103Y-66040000D01*
X139612093Y-66026476D01*
X140053309Y-65731665D01*
X140348120Y-65290449D01*
X140451644Y-64770000D01*
X140348120Y-64249551D01*
X140053309Y-63808335D01*
X139612093Y-63513524D01*
X139091644Y-63410000D01*
X139038356Y-63410000D01*
X138517907Y-63513524D01*
X138076691Y-63808335D01*
X137781880Y-64249551D01*
X137678356Y-64770000D01*
X102354480Y-64770000D01*
X102361336Y-62686000D01*
X141530000Y-62686000D01*
X141530000Y-100890000D01*
M02*
